<svg id="svg" version="1.1" width="400" height="346" viewBox="0 0 400 346" xmlns="http://www.w3.org/2000/svg" xmlns:xlink="http://www.w3.org/1999/xlink" ><g id="svgg"><path id="path0" d="M199.138 0.683 C 199.019 1.059,198.532 1.672,198.056 2.046 C 197.581 2.420,197.225 2.930,197.266 3.180 C 197.379 3.863,196.847 4.941,196.045 5.654 C 195.651 6.004,195.329 6.626,195.329 7.036 C 195.329 7.464,195.108 7.786,194.810 7.792 C 194.516 7.797,194.334 8.056,194.390 8.388 C 194.444 8.710,194.055 9.466,193.525 10.066 C 192.994 10.667,192.607 11.318,192.664 11.513 C 192.721 11.708,192.657 12.117,192.521 12.422 C 192.385 12.727,192.247 13.054,192.215 13.149 C 191.893 14.080,191.527 14.540,190.966 14.718 C 190.601 14.834,190.380 15.056,190.476 15.211 C 190.571 15.366,190.429 15.676,190.159 15.900 C 189.889 16.124,189.727 16.613,189.798 16.987 C 189.870 17.360,189.821 17.604,189.688 17.529 C 189.555 17.454,189.091 17.761,188.656 18.212 C 188.221 18.662,188.035 19.031,188.244 19.031 C 188.452 19.031,188.526 19.187,188.408 19.377 C 188.291 19.567,188.398 19.727,188.647 19.732 C 188.897 19.737,188.670 20.008,188.144 20.335 C 187.618 20.661,187.258 21.112,187.345 21.338 C 187.541 21.851,186.715 22.577,186.331 22.229 C 186.176 22.088,186.152 22.154,186.279 22.375 C 186.406 22.597,186.314 22.858,186.075 22.954 C 185.745 23.088,185.765 23.226,186.159 23.526 C 186.582 23.848,186.534 23.880,185.900 23.702 C 185.218 23.510,185.121 23.611,185.121 24.507 C 185.121 25.098,184.902 25.616,184.602 25.731 C 184.317 25.840,184.083 26.246,184.083 26.633 C 184.083 27.019,183.957 27.336,183.804 27.336 C 183.650 27.336,183.257 27.941,182.930 28.682 C 182.579 29.477,182.028 30.108,181.581 30.225 C 181.166 30.334,180.929 30.525,181.054 30.650 C 181.179 30.776,181.044 31.116,180.753 31.408 C 180.461 31.699,180.292 32.201,180.376 32.523 C 180.462 32.850,180.244 33.288,179.885 33.512 C 179.530 33.734,179.279 34.108,179.326 34.345 C 179.373 34.582,179.206 34.732,178.954 34.680 C 178.701 34.628,178.586 34.732,178.697 34.912 C 178.808 35.091,178.654 35.483,178.355 35.783 C 178.055 36.082,177.899 36.470,178.008 36.646 C 178.116 36.822,178.009 37.037,177.770 37.124 C 177.433 37.248,177.428 37.382,177.748 37.722 C 178.071 38.065,177.968 38.414,177.275 39.323 C 176.787 39.962,176.516 40.484,176.672 40.484 C 176.828 40.484,176.762 40.678,176.525 40.914 C 176.183 41.256,176.033 41.242,175.788 40.846 C 175.549 40.459,175.428 40.557,175.246 41.279 C 175.118 41.791,174.858 42.114,174.669 41.997 C 174.446 41.860,174.448 42.014,174.674 42.437 C 175.078 43.191,174.542 44.118,173.702 44.118 C 173.351 44.118,173.148 44.544,173.075 45.439 C 172.984 46.543,172.884 46.693,172.469 46.348 C 172.065 46.013,171.972 46.069,171.972 46.650 C 171.972 47.043,171.816 47.460,171.625 47.578 C 171.395 47.721,171.399 48.018,171.638 48.464 C 171.938 49.026,171.882 49.135,171.292 49.135 C 170.820 49.135,170.588 49.362,170.588 49.824 C 170.588 50.203,170.273 50.709,169.887 50.949 C 169.475 51.205,169.101 51.918,168.978 52.682 C 168.864 53.395,168.575 53.979,168.337 53.979 C 167.690 53.979,167.012 54.905,167.457 55.180 C 167.657 55.303,167.820 55.560,167.820 55.750 C 167.820 55.940,167.663 55.999,167.472 55.881 C 167.280 55.762,167.030 55.909,166.916 56.206 C 166.801 56.504,166.508 56.747,166.263 56.747 C 165.856 56.747,165.204 58.288,165.344 58.920 C 165.377 59.068,165.170 59.279,164.884 59.388 C 164.598 59.498,164.443 59.716,164.539 59.872 C 164.763 60.234,163.998 61.938,163.612 61.938 C 163.453 61.938,163.322 62.171,163.322 62.457 C 163.322 62.742,163.010 63.287,162.630 63.668 C 162.249 64.048,161.938 64.516,161.938 64.706 C 161.938 64.896,161.730 65.052,161.476 65.052 C 161.223 65.052,161.015 65.272,161.015 65.540 C 161.015 65.917,161.220 65.956,161.909 65.712 L 162.803 65.394 161.938 66.089 C 159.532 68.023,159.189 68.397,159.180 69.101 C 159.166 70.131,158.447 71.648,158.081 71.422 C 157.918 71.322,157.785 71.449,157.785 71.706 C 157.785 72.412,156.521 74.745,156.273 74.496 C 156.153 74.377,156.055 74.544,156.055 74.867 C 156.055 75.190,155.823 75.544,155.538 75.653 C 155.254 75.762,155.114 76.001,155.227 76.184 C 155.340 76.367,155.157 76.718,154.820 76.965 C 154.483 77.211,154.164 77.704,154.112 78.060 C 154.060 78.416,153.853 78.762,153.652 78.829 C 153.451 78.896,153.287 79.393,153.287 79.935 C 153.287 80.621,152.967 81.169,152.229 81.747 C 151.543 82.284,151.105 82.991,150.984 83.755 C 150.794 84.961,149.706 86.801,148.886 87.305 C 148.634 87.459,148.519 87.732,148.629 87.911 C 148.739 88.089,148.665 88.235,148.463 88.235 C 148.262 88.235,148.097 88.563,148.097 88.964 C 148.097 89.407,147.926 89.628,147.663 89.527 C 147.424 89.435,147.028 89.574,146.784 89.836 C 146.456 90.187,146.447 90.311,146.753 90.311 C 147.015 90.311,146.957 90.543,146.593 90.944 C 146.278 91.292,146.021 91.813,146.021 92.102 C 146.021 92.937,145.018 94.722,144.419 94.952 C 144.112 95.070,143.959 95.385,144.069 95.674 C 144.181 95.965,144.088 96.150,143.854 96.103 C 143.627 96.058,143.388 96.373,143.323 96.804 C 143.257 97.235,143.091 97.519,142.954 97.434 C 142.816 97.349,142.682 97.576,142.655 97.938 C 142.627 98.301,142.284 98.942,141.891 99.364 C 141.498 99.785,141.176 100.413,141.176 100.757 C 141.176 101.102,140.952 101.384,140.678 101.384 C 140.404 101.384,140.068 101.564,139.932 101.784 C 139.779 102.031,139.837 102.089,140.085 101.936 C 140.335 101.782,140.484 101.942,140.484 102.364 C 140.484 102.795,140.172 103.117,139.620 103.256 C 138.853 103.449,138.804 103.551,139.188 104.178 C 139.552 104.773,139.524 104.937,139.007 105.231 C 138.670 105.422,138.474 105.708,138.572 105.867 C 138.669 106.025,138.285 106.521,137.717 106.970 C 137.149 107.418,136.683 107.980,136.681 108.218 C 136.680 108.456,136.513 108.651,136.312 108.651 C 136.110 108.651,136.017 108.767,136.104 108.910 C 136.351 109.315,135.123 111.601,134.702 111.517 C 134.489 111.475,134.404 111.736,134.505 112.123 C 134.603 112.499,134.510 112.803,134.296 112.803 C 134.084 112.803,133.910 113.173,133.910 113.625 C 133.910 114.484,133.147 115.385,132.754 114.991 C 132.628 114.866,132.526 115.032,132.526 115.361 C 132.526 115.689,132.370 115.862,132.180 115.744 C 131.980 115.621,131.834 115.945,131.834 116.512 C 131.834 117.473,131.265 118.533,130.029 119.875 C 129.690 120.244,129.412 120.755,129.412 121.010 C 129.412 121.266,129.166 121.569,128.865 121.685 C 128.542 121.809,128.386 122.153,128.483 122.525 C 128.581 122.900,128.277 123.558,127.732 124.148 C 127.229 124.694,126.616 125.439,126.371 125.805 C 126.126 126.171,126.033 126.252,126.165 125.985 C 126.321 125.668,126.265 125.585,126.005 125.746 C 125.453 126.087,125.485 127.098,126.038 126.786 C 126.371 126.598,126.377 126.643,126.065 126.981 C 125.842 127.222,125.746 127.644,125.851 127.917 C 125.970 128.229,125.766 128.487,125.304 128.608 C 124.899 128.714,124.567 128.947,124.567 129.127 C 124.567 129.306,124.388 129.342,124.168 129.206 C 123.925 129.056,123.862 129.110,124.007 129.345 C 124.139 129.558,123.840 130.375,123.344 131.162 C 122.848 131.948,122.518 132.667,122.611 132.760 C 122.704 132.854,122.469 133.240,122.090 133.620 C 121.706 134.003,121.490 134.545,121.603 134.840 C 121.749 135.220,121.651 135.311,121.260 135.161 C 120.848 135.003,120.735 135.143,120.803 135.728 C 120.899 136.543,119.890 138.777,119.456 138.711 C 118.692 138.594,118.382 138.811,118.579 139.323 C 118.703 139.646,118.576 140.058,118.287 140.275 C 117.606 140.786,117.250 141.796,117.662 142.051 C 118.206 142.387,118.036 142.997,117.461 142.776 C 116.924 142.570,116.174 143.829,116.502 144.386 C 116.589 144.533,116.532 144.632,116.375 144.604 C 115.589 144.468,115.225 144.704,115.225 145.349 C 115.225 145.741,115.069 145.965,114.879 145.848 C 114.689 145.730,114.533 145.864,114.533 146.145 C 114.533 146.426,114.429 146.928,114.301 147.260 C 114.129 147.709,114.196 147.799,114.561 147.610 C 114.831 147.469,114.624 147.722,114.100 148.171 C 113.577 148.620,113.149 149.259,113.149 149.591 C 113.149 149.923,112.903 150.289,112.603 150.404 C 112.303 150.519,111.914 150.991,111.739 151.452 C 111.563 151.913,111.273 152.200,111.094 152.089 C 110.915 151.979,110.770 152.164,110.773 152.501 C 110.780 153.666,110.516 154.284,109.633 155.167 C 109.004 155.796,108.794 156.306,108.912 156.920 C 109.007 157.418,108.916 157.785,108.698 157.785 C 108.489 157.785,108.006 158.398,107.624 159.147 C 107.242 159.895,106.538 160.930,106.060 161.446 C 105.582 161.963,105.167 162.635,105.138 162.940 C 105.035 164.024,104.979 164.195,104.485 164.965 C 104.211 165.394,103.809 165.744,103.592 165.744 C 103.376 165.744,102.985 166.007,102.724 166.329 C 102.463 166.651,102.427 166.808,102.645 166.677 C 103.595 166.108,103.307 167.520,102.225 168.736 C 101.572 169.469,101.038 170.175,101.038 170.304 C 101.038 170.433,100.843 170.751,100.606 171.009 C 100.120 171.538,99.431 172.678,98.666 174.221 C 98.383 174.792,97.983 175.371,97.778 175.506 C 97.573 175.642,97.385 176.070,97.362 176.458 C 97.281 177.775,97.232 177.855,96.503 177.855 C 95.986 177.855,95.834 178.011,95.980 178.392 C 96.194 178.951,95.324 180.592,94.558 181.073 C 94.316 181.225,94.118 181.575,94.118 181.851 C 94.118 182.127,93.995 182.353,93.845 182.353 C 93.695 182.353,93.549 182.666,93.520 183.048 C 93.492 183.431,93.225 183.987,92.928 184.284 C 92.275 184.937,92.241 185.350,92.820 185.584 C 93.071 185.685,92.990 185.770,92.627 185.786 C 92.282 185.801,92.096 185.967,92.212 186.155 C 92.329 186.345,92.204 186.413,91.932 186.309 C 91.626 186.191,91.367 186.402,91.245 186.866 C 91.120 187.345,90.898 187.519,90.626 187.351 C 90.324 187.164,90.258 187.303,90.398 187.835 C 90.505 188.246,90.452 188.581,90.279 188.581 C 90.107 188.581,89.965 188.893,89.965 189.273 C 89.965 189.654,89.821 189.965,89.643 189.965 C 89.466 189.965,89.272 190.316,89.211 190.744 C 89.140 191.244,88.879 191.505,88.483 191.472 C 88.027 191.436,87.920 191.593,88.073 192.076 C 88.228 192.563,88.146 192.678,87.753 192.527 C 87.364 192.378,87.261 192.511,87.361 193.033 C 87.436 193.423,87.116 194.304,86.650 194.992 C 86.183 195.679,85.880 196.368,85.976 196.523 C 86.072 196.678,85.541 197.396,84.797 198.119 C 84.052 198.841,83.456 199.677,83.472 199.976 C 83.523 200.945,82.403 203.114,81.852 203.114 C 81.534 203.114,81.315 203.416,81.315 203.852 C 81.315 204.258,81.027 204.842,80.675 205.150 C 80.323 205.458,79.925 206.301,79.791 207.025 C 79.657 207.749,79.322 208.427,79.047 208.533 C 78.772 208.638,78.547 209.036,78.547 209.417 C 78.547 209.872,78.379 210.044,78.056 209.920 C 77.535 209.720,77.163 210.356,77.163 211.447 C 77.163 211.812,76.951 212.111,76.692 212.111 C 76.378 212.111,76.275 212.395,76.383 212.960 C 76.515 213.653,76.375 213.852,75.622 214.041 C 75.031 214.189,74.765 214.444,74.882 214.749 C 74.983 215.011,74.888 215.225,74.672 215.225 C 74.456 215.225,74.382 215.328,74.508 215.453 C 74.633 215.579,74.426 215.899,74.046 216.165 C 73.667 216.431,73.356 217.019,73.356 217.473 C 73.356 217.927,73.201 218.394,73.010 218.512 C 72.820 218.630,72.664 219.037,72.664 219.418 C 72.664 219.799,72.509 220.014,72.318 219.896 C 72.128 219.779,71.972 219.925,71.972 220.222 C 71.972 220.518,71.798 220.761,71.584 220.761 C 71.321 220.761,71.340 220.935,71.641 221.298 C 72.016 221.750,71.975 221.864,71.379 222.019 C 70.633 222.214,69.896 223.472,69.896 224.551 C 69.896 225.017,69.711 225.146,69.228 225.020 C 68.693 224.880,68.596 224.986,68.743 225.549 C 68.923 226.239,68.602 226.810,67.388 227.956 C 67.054 228.270,66.782 228.726,66.782 228.970 C 66.782 229.213,66.637 229.412,66.459 229.412 C 66.018 229.412,65.632 230.736,65.681 232.078 C 65.712 232.921,65.600 233.141,65.214 232.993 C 64.849 232.853,64.706 233.046,64.706 233.677 C 64.706 234.260,64.466 234.631,63.993 234.782 C 63.601 234.906,63.108 235.384,62.899 235.843 C 62.690 236.302,62.370 236.678,62.188 236.678 C 62.006 236.678,61.936 236.980,62.032 237.348 C 62.134 237.737,62.004 238.096,61.723 238.203 C 61.457 238.305,61.259 238.510,61.283 238.658 C 61.454 239.696,61.196 240.444,60.730 240.265 C 60.415 240.144,60.130 240.318,60.000 240.708 C 59.463 242.328,58.700 243.809,58.200 244.204 C 57.872 244.463,57.818 244.637,58.065 244.637 C 58.292 244.637,58.478 244.802,58.478 245.003 C 58.478 245.205,58.322 245.273,58.131 245.156 C 57.941 245.038,57.785 245.116,57.785 245.329 C 57.785 245.541,57.629 245.619,57.439 245.501 C 57.017 245.240,56.301 246.989,56.556 247.656 C 56.666 247.942,56.325 248.369,55.708 248.721 C 55.140 249.044,54.675 249.571,54.673 249.893 C 54.672 250.215,54.522 250.570,54.340 250.683 C 54.158 250.795,54.079 251.077,54.164 251.309 C 54.444 252.074,53.699 252.864,53.277 252.249 C 53.009 251.860,52.975 251.968,53.141 252.682 C 53.280 253.280,53.220 253.633,52.979 253.633 C 52.768 253.633,52.595 253.856,52.595 254.129 C 52.595 254.402,52.270 254.728,51.871 254.854 C 51.363 255.016,51.201 255.286,51.326 255.764 C 51.432 256.169,51.302 256.521,51.005 256.635 C 50.731 256.740,50.546 257.003,50.594 257.219 C 50.740 257.878,49.772 259.862,49.303 259.862 C 49.062 259.862,48.758 260.283,48.629 260.798 C 48.500 261.313,48.091 261.946,47.721 262.205 C 47.350 262.465,47.139 262.826,47.252 263.008 C 47.364 263.190,47.254 263.296,47.006 263.244 C 46.759 263.192,46.503 263.499,46.437 263.927 C 46.372 264.356,46.485 264.706,46.689 264.706 C 46.892 264.706,47.059 264.862,47.059 265.052 C 47.059 265.242,46.758 265.398,46.390 265.398 C 46.000 265.398,45.619 265.723,45.475 266.176 C 45.340 266.605,44.947 267.154,44.602 267.397 C 44.256 267.640,44.059 268.060,44.162 268.331 C 44.266 268.601,44.022 269.175,43.620 269.607 C 43.218 270.038,42.969 270.599,43.067 270.854 C 43.165 271.108,43.114 271.236,42.955 271.137 C 42.442 270.820,41.193 272.543,41.623 272.973 C 41.899 273.249,41.713 273.637,40.941 274.391 C 40.357 274.962,39.784 275.908,39.667 276.492 C 39.550 277.076,39.313 277.467,39.141 277.361 C 38.968 277.254,38.738 277.399,38.628 277.684 C 38.519 277.968,38.620 278.211,38.852 278.224 C 39.084 278.237,38.931 278.413,38.513 278.615 C 37.831 278.944,36.759 280.969,37.267 280.969 C 37.380 280.969,36.999 281.421,36.420 281.975 C 35.622 282.738,35.463 283.080,35.764 283.395 C 36.063 283.708,35.998 283.905,35.497 284.205 C 34.313 284.915,33.586 285.777,33.344 286.756 C 33.214 287.284,32.782 288.010,32.384 288.368 C 31.884 288.819,31.795 289.068,32.093 289.176 C 32.606 289.360,32.681 290.657,32.180 290.657 C 31.990 290.657,31.834 290.500,31.834 290.308 C 31.834 290.097,31.571 290.124,31.168 290.376 C 30.571 290.748,30.558 290.833,31.047 291.191 C 31.752 291.706,31.336 292.385,30.424 292.210 C 29.871 292.103,29.765 292.211,29.927 292.721 C 30.040 293.076,29.964 293.471,29.758 293.599 C 29.552 293.726,29.486 294.152,29.611 294.545 C 29.785 295.095,29.715 295.213,29.307 295.057 C 28.635 294.799,28.296 295.620,28.833 296.202 C 29.134 296.528,29.135 296.583,28.837 296.416 C 28.185 296.051,27.297 296.564,27.496 297.192 C 27.599 297.516,27.313 298.155,26.835 298.671 C 26.372 299.171,26.085 299.672,26.197 299.785 C 26.310 299.897,25.980 300.412,25.463 300.929 C 24.935 301.457,24.590 302.124,24.675 302.451 C 24.821 303.007,23.761 304.269,23.428 303.936 C 23.341 303.848,23.174 304.025,23.057 304.328 C 22.916 304.696,22.989 304.808,23.274 304.664 C 23.510 304.544,23.414 304.682,23.062 304.969 C 22.689 305.273,22.531 305.667,22.683 305.913 C 22.855 306.191,22.800 306.246,22.522 306.074 C 22.256 305.910,22.140 305.990,22.208 306.289 C 22.334 306.835,20.955 308.729,20.653 308.427 C 20.543 308.316,20.447 308.594,20.440 309.044 C 20.433 309.494,20.422 310.206,20.416 310.627 C 20.409 311.160,20.249 311.333,19.891 311.196 C 19.535 311.059,19.377 311.227,19.377 311.743 C 19.377 312.260,19.192 312.456,18.772 312.385 C 18.339 312.313,18.174 312.505,18.193 313.058 C 18.209 313.520,17.965 313.913,17.588 314.033 C 16.993 314.221,16.839 314.532,17.042 315.138 C 17.089 315.281,17.245 315.359,17.388 315.311 C 17.530 315.264,17.647 315.381,17.647 315.571 C 17.647 315.761,17.397 315.917,17.091 315.917 C 16.739 315.917,16.608 316.107,16.734 316.436 C 16.844 316.721,16.782 316.955,16.598 316.955 C 16.414 316.955,16.302 317.072,16.349 317.215 C 16.397 317.357,16.125 317.797,15.744 318.192 C 14.781 319.192,13.503 320.858,13.452 321.182 C 13.428 321.331,13.369 321.609,13.322 321.799 C 13.274 321.990,13.216 322.379,13.192 322.664 C 13.168 322.950,12.906 323.183,12.609 323.183 C 12.313 323.183,12.166 323.339,12.284 323.529 C 12.401 323.720,12.366 323.875,12.205 323.875 C 12.044 323.875,11.886 324.223,11.854 324.647 C 11.822 325.072,11.552 325.597,11.255 325.814 C 10.958 326.032,10.801 326.434,10.906 326.708 C 11.022 327.011,10.755 327.389,10.224 327.673 C 9.744 327.930,9.155 328.582,8.916 329.122 C 8.677 329.662,8.397 330.104,8.294 330.104 C 8.190 330.104,8.068 330.592,8.023 331.189 C 7.929 332.424,7.313 333.770,7.253 332.872 C 7.229 332.525,7.125 332.582,6.939 333.045 C 6.772 333.459,6.816 333.937,7.050 334.236 C 7.363 334.637,7.337 334.673,6.920 334.419 C 6.057 333.893,5.538 333.940,5.500 334.546 C 5.479 334.862,5.428 335.355,5.386 335.640 C 5.343 335.926,5.282 336.421,5.249 336.741 C 5.217 337.062,4.879 337.423,4.498 337.543 C 3.760 337.778,3.182 338.624,3.016 339.718 C 2.959 340.087,2.642 340.660,2.310 340.992 C 1.862 341.440,1.803 341.713,2.082 342.049 C 2.366 342.391,2.299 342.553,1.808 342.709 C 1.413 342.834,1.168 343.220,1.184 343.690 C 1.203 344.242,1.038 344.435,0.606 344.362 C 0.161 344.287,0.000 344.494,0.000 345.141 L 0.000 346.021 199.691 346.021 C 377.052 346.021,399.360 345.963,399.183 345.502 C 399.073 345.216,399.148 344.983,399.350 344.983 C 399.551 344.983,399.312 344.504,398.820 343.918 C 398.327 343.333,397.924 342.623,397.924 342.341 C 397.924 342.058,397.786 341.913,397.617 342.017 C 397.127 342.320,396.441 341.246,396.640 340.486 C 396.739 340.105,396.680 339.792,396.507 339.792 C 396.335 339.792,396.194 339.533,396.194 339.216 C 396.194 338.899,396.103 338.730,395.992 338.841 C 395.724 339.109,394.261 337.632,394.395 337.229 C 394.453 337.056,394.375 336.823,394.222 336.710 C 393.570 336.229,393.135 335.031,393.485 334.681 C 393.729 334.437,393.613 334.252,393.114 334.094 C 392.715 333.967,392.388 333.713,392.388 333.530 C 392.388 333.346,392.037 333.055,391.609 332.883 C 391.040 332.654,390.989 332.564,391.419 332.548 C 392.124 332.522,390.956 329.937,389.873 329.129 C 389.537 328.878,389.351 328.527,389.461 328.350 C 389.571 328.173,389.456 328.026,389.207 328.025 C 388.744 328.022,387.889 326.520,387.889 325.710 C 387.889 325.462,387.717 325.260,387.506 325.260 C 387.296 325.260,387.218 325.012,387.335 324.708 C 387.476 324.341,387.315 324.097,386.853 323.976 C 386.468 323.876,386.159 323.504,386.159 323.143 C 386.159 322.785,386.042 322.490,385.900 322.489 C 385.549 322.485,384.775 320.773,384.775 320.000 C 384.775 319.626,384.521 319.377,384.139 319.377 C 383.236 319.377,382.514 317.749,383.322 317.536 C 383.840 317.400,383.842 317.377,383.345 317.341 C 383.024 317.318,382.378 316.479,381.847 315.394 C 381.250 314.173,380.769 313.575,380.509 313.731 C 380.223 313.902,380.228 313.820,380.526 313.451 C 380.972 312.900,380.675 312.286,379.073 310.439 C 378.689 309.996,378.374 309.484,378.374 309.302 C 378.374 309.120,378.162 308.841,377.904 308.681 C 377.577 308.479,377.551 308.319,377.818 308.154 C 378.305 307.853,378.316 307.266,377.834 307.266 C 377.633 307.266,377.585 307.461,377.728 307.699 C 377.891 307.971,377.762 307.948,377.378 307.637 C 377.040 307.362,376.842 306.862,376.933 306.512 C 377.024 306.166,376.967 305.882,376.808 305.882 C 376.648 305.882,376.418 305.571,376.298 305.190 C 376.177 304.810,375.869 304.498,375.613 304.498 C 375.357 304.498,375.189 304.226,375.240 303.893 C 375.376 302.993,374.792 301.919,373.962 301.543 C 373.559 301.360,373.209 300.898,373.184 300.516 C 373.138 299.817,372.349 298.181,372.329 298.745 C 372.323 298.911,372.094 298.861,371.820 298.633 C 371.546 298.405,371.401 298.013,371.497 297.761 C 371.594 297.508,371.507 297.199,371.304 297.073 C 371.101 296.948,370.934 296.559,370.934 296.210 C 370.934 295.861,370.685 295.480,370.379 295.363 C 370.045 295.235,369.908 294.932,370.034 294.602 C 370.324 293.849,367.831 290.415,367.347 290.900 C 367.245 291.002,367.059 290.677,366.934 290.179 C 366.809 289.681,366.490 289.273,366.225 289.273 C 365.961 289.273,365.744 289.132,365.744 288.960 C 365.744 288.787,366.055 288.728,366.436 288.827 C 367.465 289.096,367.273 288.344,366.176 287.808 C 365.594 287.523,365.264 287.113,365.327 286.751 C 365.383 286.425,365.257 286.159,365.047 286.159 C 364.837 286.159,364.754 286.015,364.863 285.838 C 364.973 285.661,364.728 285.411,364.319 285.281 C 363.818 285.122,363.711 284.962,363.990 284.790 C 364.285 284.608,364.148 284.231,363.516 283.479 C 363.027 282.899,362.595 282.030,362.555 281.548 C 362.515 281.066,362.399 280.679,362.297 280.688 C 361.717 280.740,361.251 280.590,361.287 280.363 C 361.403 279.627,361.186 279.239,360.657 279.239 C 360.218 279.239,360.169 279.139,360.462 278.846 C 360.755 278.552,360.728 278.326,360.355 277.953 C 360.080 277.678,359.944 277.309,360.053 277.132 C 360.253 276.809,359.431 275.779,358.973 275.779 C 358.516 275.779,357.808 274.573,357.796 273.778 C 357.790 273.344,357.566 272.904,357.298 272.801 C 356.852 272.631,356.214 271.106,356.340 270.514 C 356.369 270.378,356.176 270.350,355.911 270.452 C 355.581 270.579,355.357 270.276,355.202 269.488 C 354.905 267.991,354.301 266.436,354.016 266.436 C 353.892 266.436,353.497 265.891,353.138 265.225 C 352.780 264.559,352.277 264.014,352.022 264.014 C 351.435 264.014,351.404 263.326,351.990 263.311 C 352.292 263.303,352.266 263.170,351.903 262.870 C 351.323 262.390,350.720 261.501,350.098 260.208 C 349.869 259.732,349.405 258.974,349.067 258.523 C 348.729 258.073,348.537 257.567,348.641 257.399 C 348.745 257.231,348.626 257.092,348.377 257.091 C 347.795 257.088,346.567 255.031,346.674 254.239 C 346.719 253.906,346.591 253.633,346.389 253.633 C 346.186 253.633,346.021 253.396,346.021 253.106 C 346.021 252.815,345.631 252.430,345.156 252.249 C 344.669 252.064,344.291 251.644,344.291 251.289 C 344.291 250.288,343.482 248.806,342.820 248.592 C 342.123 248.367,342.008 247.531,342.644 247.319 C 343.138 247.155,342.181 246.021,341.547 246.021 C 341.343 246.021,341.176 245.709,341.176 245.329 C 341.176 244.948,341.026 244.637,340.841 244.637 C 340.657 244.637,340.596 244.403,340.705 244.118 C 340.824 243.808,340.493 243.215,339.883 242.645 C 339.321 242.121,338.902 241.420,338.951 241.088 C 338.999 240.756,338.893 240.484,338.715 240.484 C 338.537 240.484,338.243 240.095,338.062 239.619 C 337.881 239.144,337.574 238.754,337.379 238.754 C 337.184 238.754,337.024 238.434,337.024 238.042 C 337.024 237.595,336.877 237.421,336.628 237.574 C 336.355 237.743,336.286 237.537,336.405 236.913 C 336.502 236.405,336.438 236.094,336.259 236.204 C 336.083 236.313,335.855 236.076,335.751 235.679 C 335.647 235.281,335.447 235.027,335.307 235.113 C 335.167 235.200,335.039 234.774,335.021 234.168 C 334.991 233.113,334.099 232.022,333.545 232.365 C 333.401 232.454,333.364 232.215,333.464 231.834 C 333.565 231.447,333.474 231.142,333.258 231.142 C 333.046 231.142,332.872 230.814,332.872 230.413 C 332.872 229.907,332.713 229.745,332.353 229.883 C 332.067 229.992,331.814 229.931,331.791 229.747 C 331.706 229.092,331.631 228.884,331.204 228.114 C 330.932 227.625,330.905 227.336,331.130 227.336 C 331.327 227.336,331.488 227.180,331.488 226.990 C 331.488 226.799,331.371 226.662,331.228 226.685 C 330.368 226.820,330.074 226.590,330.280 225.943 C 330.432 225.462,330.358 225.272,330.043 225.337 C 329.791 225.390,329.582 225.199,329.578 224.913 C 329.575 224.627,329.302 224.009,328.973 223.538 C 328.643 223.068,328.374 222.443,328.374 222.149 C 328.374 221.855,327.658 220.796,326.783 219.796 C 325.907 218.794,325.274 217.763,325.375 217.500 C 325.483 217.217,325.275 216.949,324.864 216.842 C 324.298 216.694,324.236 216.537,324.527 215.993 C 324.820 215.444,324.733 215.245,324.034 214.871 C 323.566 214.621,323.182 214.248,323.181 214.042 C 323.180 213.836,322.925 213.201,322.615 212.630 C 322.305 212.059,321.827 211.163,321.554 210.640 C 321.280 210.117,320.816 209.689,320.523 209.689 C 320.133 209.689,320.035 209.443,320.161 208.785 C 320.341 207.844,319.650 206.071,319.257 206.464 C 319.133 206.588,319.031 206.441,319.031 206.136 C 319.031 205.832,318.717 205.483,318.334 205.362 C 317.951 205.240,317.712 205.019,317.804 204.871 C 317.895 204.723,317.569 204.072,317.080 203.425 C 316.081 202.106,315.087 200.093,315.047 199.308 C 315.032 199.022,314.847 198.823,314.636 198.864 C 314.425 198.906,314.165 198.711,314.058 198.432 C 313.950 198.153,314.032 197.924,314.240 197.924 C 314.490 197.924,314.473 197.750,314.190 197.409 C 313.955 197.125,313.639 196.970,313.488 197.063 C 313.337 197.156,313.285 196.957,313.374 196.620 C 313.478 196.221,313.162 195.731,312.467 195.218 C 311.880 194.784,311.488 194.286,311.595 194.111 C 311.703 193.937,311.495 193.609,311.133 193.383 C 310.732 193.133,310.539 192.720,310.641 192.332 C 310.733 191.980,310.615 191.459,310.379 191.175 C 310.143 190.890,310.086 190.653,310.252 190.647 C 310.418 190.641,310.293 190.484,309.975 190.299 C 309.657 190.113,309.294 189.495,309.169 188.925 C 309.013 188.213,308.734 187.889,308.277 187.889 C 307.912 187.889,307.612 187.724,307.612 187.523 C 307.612 187.321,307.766 187.252,307.955 187.368 C 308.556 187.740,307.896 186.474,307.043 185.621 C 306.595 185.173,306.209 184.566,306.185 184.272 C 306.161 183.978,306.122 183.542,306.099 183.304 C 306.075 183.067,305.833 182.872,305.561 182.872 C 305.062 182.872,304.405 181.178,304.765 180.818 C 304.872 180.711,304.544 180.623,304.037 180.623 C 303.529 180.623,303.114 180.458,303.114 180.256 C 303.114 180.055,303.270 179.986,303.460 180.104 C 303.651 180.221,303.806 180.162,303.806 179.972 C 303.806 179.781,303.648 179.528,303.455 179.408 C 303.261 179.289,303.189 179.052,303.294 178.881 C 303.399 178.711,303.168 178.255,302.781 177.867 C 302.393 177.480,302.076 177.044,302.076 176.900 C 302.076 176.755,301.765 176.443,301.384 176.205 C 300.913 175.911,300.692 175.398,300.692 174.602 C 300.692 173.853,300.495 173.355,300.145 173.220 C 299.380 172.927,299.234 172.957,299.481 173.356 C 299.599 173.547,299.530 173.702,299.328 173.702 C 298.879 173.702,298.877 173.625,299.299 172.514 C 299.519 171.937,299.519 171.626,299.299 171.626 C 299.114 171.626,298.962 171.393,298.962 171.107 C 298.962 170.822,298.780 170.627,298.558 170.675 C 298.336 170.722,298.010 170.282,297.833 169.697 C 297.657 169.112,297.099 168.376,296.594 168.063 C 296.088 167.749,295.848 167.488,296.059 167.483 C 296.281 167.478,296.374 167.110,296.279 166.613 C 296.189 166.139,295.977 165.837,295.808 165.941 C 295.640 166.046,295.502 165.879,295.502 165.571 C 295.502 165.263,295.346 165.107,295.156 165.225 C 294.965 165.343,294.810 165.131,294.810 164.755 C 294.810 163.614,294.412 162.939,293.544 162.609 C 293.016 162.408,292.643 161.920,292.510 161.251 C 292.395 160.677,292.147 160.208,291.958 160.208 C 291.769 160.208,291.696 159.896,291.796 159.516 C 291.895 159.135,291.852 158.824,291.701 158.824 C 291.549 158.824,291.333 158.459,291.221 158.013 C 291.109 157.567,290.613 156.797,290.118 156.302 C 289.623 155.807,289.171 155.121,289.113 154.777 C 289.056 154.433,288.823 154.195,288.596 154.247 C 288.369 154.300,288.275 154.195,288.386 154.016 C 288.497 153.836,288.336 153.437,288.028 153.129 C 287.720 152.822,287.446 152.185,287.419 151.714 C 287.388 151.165,287.208 150.920,286.920 151.031 C 286.672 151.125,286.557 151.061,286.665 150.887 C 286.958 150.412,286.112 148.777,285.704 149.030 C 285.493 149.160,285.434 149.029,285.557 148.707 C 285.695 148.347,285.526 148.102,285.054 147.979 C 284.497 147.833,284.389 147.610,284.557 146.943 C 284.703 146.360,284.608 146.031,284.254 145.895 C 283.969 145.786,283.737 145.475,283.737 145.204 C 283.737 144.933,283.503 144.621,283.218 144.512 C 282.933 144.402,282.699 144.074,282.699 143.782 C 282.699 143.491,282.533 143.253,282.330 143.253 C 282.125 143.253,282.053 142.961,282.167 142.602 C 282.297 142.191,282.178 141.876,281.844 141.747 C 281.553 141.636,281.315 141.343,281.315 141.096 C 281.315 140.850,280.925 140.356,280.449 139.998 C 279.842 139.543,279.684 139.224,279.923 138.936 C 280.158 138.654,280.050 138.295,279.579 137.789 C 279.201 137.384,278.893 136.906,278.893 136.725 C 278.893 136.545,278.555 136.485,278.142 136.593 C 277.544 136.750,277.439 136.673,277.623 136.215 C 277.751 135.899,277.949 135.407,278.065 135.121 C 278.200 134.788,278.076 134.602,277.719 134.602 C 277.393 134.602,277.163 134.315,277.163 133.910 C 277.163 133.529,276.998 133.218,276.796 133.218 C 276.595 133.218,276.526 133.374,276.644 133.564 C 276.761 133.754,276.693 133.910,276.491 133.910 C 276.152 133.910,276.024 133.298,276.034 131.727 C 276.036 131.357,275.855 131.171,275.591 131.273 C 275.122 131.452,274.582 130.585,274.701 129.844 C 274.739 129.606,274.548 129.412,274.275 129.412 C 273.986 129.412,273.587 128.762,273.319 127.854 C 273.051 126.946,272.602 126.215,272.243 126.101 C 271.752 125.945,271.700 125.769,271.985 125.236 C 272.234 124.771,272.231 124.567,271.976 124.567 C 271.774 124.567,271.476 124.217,271.312 123.789 C 271.149 123.361,270.296 122.055,269.418 120.887 C 268.532 119.710,267.820 118.386,267.820 117.917 C 267.820 116.854,267.492 116.509,266.928 116.977 C 266.457 117.368,266.419 116.510,266.887 116.042 C 267.316 115.614,267.142 115.241,266.609 115.446 C 266.280 115.572,266.090 115.441,266.090 115.089 C 266.090 114.783,265.934 114.533,265.744 114.533 C 265.554 114.533,265.398 114.279,265.398 113.968 C 265.398 113.657,265.117 113.151,264.773 112.843 C 264.430 112.536,263.944 111.778,263.693 111.159 C 263.443 110.541,263.092 110.035,262.913 110.035 C 262.735 110.035,262.680 109.887,262.792 109.706 C 262.904 109.525,262.667 109.202,262.267 108.987 C 261.780 108.727,261.613 108.405,261.764 108.018 C 262.173 106.966,262.118 106.746,261.470 106.857 C 261.109 106.919,260.924 106.815,261.045 106.619 C 261.163 106.427,261.048 106.145,260.788 105.990 C 260.240 105.664,259.019 103.853,258.983 103.311 C 258.926 102.445,258.051 100.904,257.046 99.899 C 256.446 99.300,256.140 98.761,256.356 98.689 C 256.996 98.475,256.801 97.641,256.055 97.405 C 255.675 97.284,255.363 96.986,255.363 96.743 C 255.363 96.499,255.115 95.802,254.811 95.194 C 254.508 94.585,254.226 93.900,254.184 93.670 C 254.074 93.061,251.752 90.657,251.273 90.657 C 250.776 90.657,250.735 90.087,251.211 89.792 C 251.798 89.429,251.597 88.663,250.649 87.649 C 250.149 87.115,249.955 86.990,250.216 87.370 C 250.649 88.000,250.639 88.021,250.107 87.604 C 249.785 87.353,249.607 86.926,249.710 86.656 C 249.814 86.386,249.649 86.069,249.344 85.952 C 249.039 85.835,248.789 85.591,248.789 85.410 C 248.789 85.229,248.945 85.176,249.135 85.294 C 249.325 85.412,249.481 85.344,249.481 85.144 C 249.481 84.945,249.170 84.586,248.789 84.349 C 248.408 84.111,248.097 83.726,248.097 83.493 C 248.097 82.975,246.896 82.285,246.567 82.614 C 246.437 82.744,246.420 82.341,246.530 81.719 C 246.696 80.772,246.524 80.336,245.480 79.062 C 244.793 78.224,244.332 77.376,244.455 77.177 C 244.577 76.979,244.513 76.817,244.311 76.817 C 244.110 76.817,243.945 76.594,243.945 76.322 C 243.945 76.049,243.594 75.777,243.166 75.716 C 242.575 75.632,242.379 75.366,242.352 74.610 C 242.332 74.054,242.052 73.466,241.717 73.279 C 241.290 73.039,241.180 72.697,241.334 72.083 C 241.473 71.529,241.422 71.301,241.190 71.445 C 240.992 71.567,240.828 71.463,240.824 71.214 C 240.821 70.965,240.436 70.399,239.969 69.955 C 239.501 69.512,239.135 69.045,239.156 68.917 C 239.247 68.347,238.638 66.436,238.365 66.436 C 238.199 66.436,238.062 66.220,238.062 65.955 C 238.062 65.691,237.801 65.496,237.482 65.523 C 237.067 65.557,236.790 65.126,236.514 64.014 C 236.300 63.157,235.978 62.504,235.797 62.562 C 235.615 62.619,235.410 62.386,235.340 62.042 C 235.270 61.699,234.905 60.985,234.529 60.455 C 234.153 59.924,233.807 59.224,233.760 58.898 C 233.713 58.571,233.338 58.255,232.927 58.194 C 232.516 58.133,232.180 57.861,232.180 57.588 C 232.180 57.316,232.046 57.093,231.882 57.093 C 231.718 57.093,231.658 56.704,231.749 56.228 C 231.840 55.753,231.758 55.363,231.566 55.363 C 231.374 55.363,230.968 54.740,230.663 53.979 C 230.359 53.218,229.943 52.595,229.740 52.595 C 229.537 52.595,229.471 52.433,229.594 52.234 C 229.717 52.035,229.609 51.616,229.355 51.303 C 228.960 50.816,228.969 50.775,229.412 51.027 C 229.697 51.190,229.558 50.913,229.102 50.412 C 228.646 49.912,228.116 49.599,227.924 49.718 C 227.726 49.841,227.681 49.761,227.822 49.534 C 227.957 49.315,227.945 48.940,227.794 48.702 C 227.532 48.291,227.478 48.129,227.379 47.460 C 227.355 47.301,226.969 47.003,226.520 46.798 C 226.013 46.567,225.621 46.013,225.486 45.336 C 225.349 44.654,225.122 44.334,224.880 44.484 C 224.618 44.646,224.568 44.487,224.727 43.988 C 224.913 43.400,224.817 43.253,224.245 43.253 C 223.851 43.253,223.529 43.088,223.529 42.886 C 223.529 42.685,223.685 42.616,223.875 42.734 C 224.066 42.851,224.221 42.773,224.221 42.561 C 224.221 42.348,224.401 42.285,224.621 42.421 C 224.868 42.574,224.926 42.516,224.774 42.268 C 224.638 42.048,224.302 41.869,224.028 41.869 C 223.754 41.869,223.529 41.558,223.529 41.179 C 223.529 40.800,223.218 40.296,222.837 40.058 C 222.457 39.820,222.145 39.443,222.145 39.219 C 222.145 38.995,221.981 38.757,221.780 38.690 C 221.580 38.623,221.373 38.338,221.321 38.056 C 221.106 36.897,219.876 34.602,219.469 34.602 C 219.228 34.602,219.031 34.369,219.031 34.083 C 219.031 33.798,218.866 33.564,218.663 33.564 C 218.461 33.564,218.343 33.286,218.400 32.946 C 218.458 32.607,218.142 31.945,217.699 31.476 C 216.811 30.536,215.706 28.104,215.855 27.418 C 215.907 27.177,215.723 26.893,215.446 26.787 C 215.169 26.681,214.750 26.130,214.515 25.563 C 214.259 24.943,213.905 24.602,213.629 24.707 C 213.377 24.804,213.079 24.734,212.966 24.552 C 212.854 24.370,212.927 24.221,213.128 24.221 C 213.756 24.221,213.529 22.895,212.866 22.684 C 212.520 22.575,212.024 21.941,211.763 21.277 C 211.503 20.613,211.160 20.069,211.001 20.069 C 210.843 20.069,210.783 19.684,210.868 19.212 C 210.966 18.674,210.872 18.384,210.616 18.434 C 210.391 18.477,210.243 18.201,210.287 17.820 C 210.376 17.048,209.844 16.283,208.816 15.706 C 208.439 15.495,208.131 15.106,208.131 14.841 C 208.131 14.576,207.914 14.272,207.649 14.165 C 207.217 13.990,206.947 13.078,206.816 11.358 C 206.792 11.039,206.663 10.845,206.530 10.927 C 206.397 11.009,206.093 10.635,205.854 10.095 C 205.615 9.555,205.004 8.930,204.497 8.705 C 203.544 8.284,202.439 5.882,203.197 5.882 C 203.397 5.882,203.141 5.493,202.628 5.017 C 202.114 4.542,201.799 4.152,201.928 4.152 C 202.056 4.152,201.999 3.958,201.802 3.720 C 201.604 3.482,201.469 3.175,201.500 3.039 C 201.531 2.902,201.300 2.491,200.987 2.124 C 200.673 1.758,200.312 1.130,200.185 0.729 C 199.894 -0.187,199.421 -0.208,199.138 0.683 " stroke="none" fill="#4cacf4" fill-rule="evenodd"></path><path id="path1" d="M197.201 1.903 C 196.767 2.950,196.285 3.806,196.130 3.806 C 195.975 3.806,195.848 4.118,195.848 4.498 C 195.848 4.879,195.692 5.190,195.502 5.190 C 195.311 5.190,195.156 5.353,195.156 5.551 C 195.156 5.749,194.844 6.246,194.464 6.654 C 194.083 7.063,193.772 7.612,193.772 7.875 C 193.772 8.392,191.742 11.518,191.283 11.707 C 191.129 11.770,191.003 12.108,191.003 12.457 C 191.003 12.806,190.887 13.143,190.744 13.206 C 190.601 13.270,190.100 14.100,189.629 15.052 C 189.159 16.003,188.420 17.264,187.986 17.853 C 187.552 18.442,187.197 19.103,187.197 19.323 C 187.197 19.543,187.042 19.723,186.851 19.723 C 186.661 19.723,186.505 19.926,186.505 20.173 C 186.505 20.810,185.691 22.485,185.381 22.489 C 184.888 22.494,185.123 23.456,185.668 23.665 C 186.478 23.976,186.751 23.911,186.172 23.545 C 185.756 23.281,185.829 23.097,186.589 22.499 C 187.097 22.100,187.439 21.583,187.349 21.351 C 187.260 21.118,187.618 20.661,188.144 20.335 C 188.670 20.008,188.897 19.737,188.647 19.732 C 188.398 19.727,188.291 19.567,188.408 19.377 C 188.526 19.187,188.452 19.031,188.244 19.031 C 188.035 19.031,188.221 18.662,188.656 18.212 C 189.091 17.761,189.555 17.454,189.688 17.529 C 189.821 17.604,189.870 17.360,189.798 16.987 C 189.727 16.613,189.889 16.124,190.159 15.900 C 190.429 15.676,190.571 15.366,190.476 15.211 C 190.380 15.056,190.601 14.834,190.966 14.718 C 191.527 14.540,191.893 14.080,192.215 13.149 C 192.247 13.054,192.385 12.727,192.521 12.422 C 192.657 12.117,192.721 11.708,192.664 11.513 C 192.607 11.318,192.994 10.667,193.525 10.066 C 194.055 9.466,194.444 8.710,194.390 8.388 C 194.334 8.056,194.516 7.797,194.810 7.792 C 195.108 7.786,195.329 7.464,195.329 7.036 C 195.329 6.626,195.651 6.004,196.045 5.654 C 196.820 4.965,197.378 3.871,197.279 3.235 C 197.245 3.015,197.688 2.366,198.263 1.791 C 199.465 0.589,199.592 0.000,198.649 -0.000 C 198.177 -0.000,197.767 0.539,197.201 1.903 M200.185 0.729 C 200.312 1.130,200.673 1.758,200.987 2.124 C 201.300 2.491,201.559 2.902,201.562 3.039 C 201.565 3.175,201.691 3.482,201.842 3.720 C 201.993 3.958,202.022 4.152,201.906 4.152 C 201.790 4.152,202.114 4.542,202.628 5.017 C 203.141 5.493,203.397 5.882,203.197 5.882 C 202.439 5.882,203.544 8.284,204.497 8.705 C 205.490 9.145,207.498 12.840,207.097 13.490 C 206.975 13.686,207.158 13.962,207.504 14.103 C 207.849 14.244,208.131 14.576,208.131 14.841 C 208.131 15.406,209.206 16.169,209.537 15.838 C 209.662 15.713,209.436 15.150,209.034 14.586 C 208.633 14.022,208.304 13.313,208.304 13.009 C 208.304 12.705,208.149 12.457,207.958 12.457 C 207.768 12.457,207.612 12.218,207.612 11.927 C 207.612 11.635,207.380 11.308,207.095 11.199 C 206.811 11.089,206.665 10.861,206.770 10.690 C 206.875 10.520,206.796 10.381,206.595 10.381 C 206.393 10.381,206.228 10.176,206.228 9.927 C 206.228 9.677,205.942 9.166,205.593 8.791 C 205.243 8.415,204.844 7.659,204.706 7.110 C 204.569 6.562,203.687 4.968,202.747 3.569 C 201.807 2.169,201.038 0.794,201.038 0.512 C 201.038 0.231,200.794 0.000,200.496 0.000 C 200.102 0.000,200.017 0.199,200.185 0.729 M210.031 16.778 C 210.266 17.061,210.372 17.516,210.267 17.790 C 210.162 18.064,210.291 18.467,210.554 18.685 C 210.816 18.903,210.946 19.304,210.842 19.575 C 210.738 19.847,210.796 20.069,210.971 20.069 C 211.146 20.069,211.501 20.608,211.759 21.266 C 212.207 22.407,213.022 23.079,213.446 22.656 C 213.554 22.547,213.453 22.193,213.221 21.869 C 212.988 21.545,212.703 21.047,212.587 20.761 C 212.471 20.476,212.208 19.831,212.002 19.328 C 211.761 18.737,211.449 18.482,211.121 18.608 C 210.775 18.740,210.700 18.663,210.884 18.365 C 211.184 17.879,210.453 16.263,209.934 16.263 C 209.752 16.263,209.796 16.495,210.031 16.778 M213.495 23.702 C 213.495 23.988,213.330 24.221,213.128 24.221 C 212.927 24.221,212.854 24.370,212.966 24.552 C 213.079 24.734,213.377 24.804,213.629 24.707 C 213.905 24.602,214.259 24.943,214.515 25.563 C 214.750 26.130,215.169 26.681,215.446 26.787 C 215.723 26.893,215.907 27.177,215.855 27.418 C 215.706 28.104,216.811 30.536,217.699 31.476 C 218.142 31.945,218.458 32.607,218.400 32.946 C 218.343 33.286,218.461 33.564,218.663 33.564 C 218.866 33.564,219.031 33.798,219.031 34.083 C 219.031 34.369,219.228 34.602,219.469 34.602 C 219.876 34.602,221.106 36.897,221.321 38.056 C 221.373 38.338,221.580 38.623,221.780 38.690 C 221.981 38.757,222.145 38.995,222.145 39.219 C 222.145 39.443,222.457 39.820,222.837 40.058 C 223.218 40.296,223.529 40.800,223.529 41.179 C 223.529 41.558,223.685 41.869,223.875 41.869 C 224.066 41.869,224.221 41.557,224.221 41.176 C 224.221 40.796,224.066 40.484,223.875 40.484 C 223.685 40.484,223.529 40.173,223.529 39.792 C 223.529 39.412,223.374 39.100,223.183 39.100 C 222.993 39.100,222.837 38.876,222.837 38.601 C 222.837 37.772,220.024 33.551,219.633 33.793 C 219.415 33.928,219.374 33.849,219.530 33.597 C 219.824 33.121,219.109 31.142,218.643 31.142 C 218.476 31.142,218.339 30.865,218.339 30.526 C 218.339 30.188,218.028 29.686,217.647 29.412 C 217.266 29.137,216.955 28.649,216.955 28.326 C 216.955 28.003,216.838 27.687,216.696 27.624 C 216.553 27.561,216.048 26.730,215.573 25.779 C 214.386 23.400,213.495 22.509,213.495 23.702 M184.429 24.156 C 184.429 24.311,184.157 24.747,183.824 25.125 C 182.968 26.098,182.353 27.237,182.353 27.850 C 182.353 28.138,182.208 28.374,182.030 28.374 C 181.853 28.374,181.609 28.684,181.489 29.064 C 181.368 29.443,181.085 29.949,180.859 30.188 C 180.101 30.992,178.503 34.251,178.706 34.580 C 178.817 34.759,178.633 35.059,178.297 35.247 C 177.962 35.435,177.806 35.707,177.952 35.853 C 178.230 36.131,179.467 34.615,179.323 34.172 C 179.278 34.031,179.530 33.734,179.885 33.512 C 180.244 33.288,180.462 32.850,180.376 32.523 C 180.292 32.201,180.461 31.699,180.753 31.408 C 181.044 31.116,181.179 30.776,181.054 30.650 C 180.929 30.525,181.166 30.334,181.581 30.225 C 182.028 30.108,182.579 29.477,182.930 28.682 C 183.257 27.941,183.650 27.336,183.804 27.336 C 183.957 27.336,184.083 27.019,184.083 26.633 C 184.083 26.246,184.317 25.840,184.602 25.731 C 185.175 25.511,185.327 23.875,184.775 23.875 C 184.585 23.875,184.429 24.002,184.429 24.156 M176.903 36.850 C 176.665 37.120,176.471 37.581,176.471 37.875 C 176.471 38.168,176.354 38.410,176.211 38.411 C 175.900 38.414,175.087 40.090,175.087 40.726 C 175.087 40.974,174.914 41.176,174.703 41.176 C 174.493 41.176,174.410 41.410,174.520 41.696 C 174.641 42.012,174.520 42.215,174.211 42.215 C 173.931 42.215,173.702 42.448,173.702 42.734 C 173.702 43.019,173.547 43.253,173.356 43.253 C 173.166 43.253,173.010 43.486,173.010 43.772 C 173.010 44.057,172.871 44.291,172.701 44.291 C 172.530 44.291,171.888 45.333,171.273 46.608 C 170.658 47.882,169.941 49.139,169.680 49.401 C 169.418 49.662,169.204 50.177,169.204 50.544 C 169.204 50.911,169.077 51.211,168.922 51.211 C 168.633 51.211,167.128 53.823,167.128 54.325 C 167.128 55.241,168.818 53.677,168.991 52.602 C 169.102 51.911,169.490 51.196,169.887 50.949 C 170.273 50.709,170.588 50.203,170.588 49.824 C 170.588 49.362,170.820 49.135,171.292 49.135 C 171.882 49.135,171.938 49.026,171.638 48.464 C 171.399 48.018,171.395 47.721,171.625 47.578 C 171.816 47.460,171.972 47.043,171.972 46.650 C 171.972 46.069,172.065 46.013,172.469 46.348 C 172.884 46.693,172.984 46.543,173.075 45.439 C 173.148 44.544,173.351 44.118,173.702 44.118 C 174.267 44.118,175.110 43.225,174.887 42.864 C 174.811 42.741,174.923 42.140,175.136 41.529 C 175.415 40.729,175.604 40.547,175.810 40.881 C 176.037 41.249,176.183 41.256,176.525 40.914 C 176.762 40.678,176.828 40.484,176.672 40.484 C 176.516 40.484,176.787 39.962,177.275 39.323 C 177.968 38.414,178.071 38.065,177.748 37.722 C 177.428 37.382,177.433 37.248,177.770 37.124 C 178.009 37.037,178.117 36.823,178.009 36.649 C 177.740 36.212,177.412 36.272,176.903 36.850 M224.347 42.386 C 224.238 42.670,224.010 42.816,223.839 42.711 C 223.669 42.606,223.529 42.685,223.529 42.886 C 223.529 43.088,223.851 43.253,224.245 43.253 C 224.817 43.253,224.913 43.400,224.727 43.988 C 224.568 44.487,224.618 44.646,224.880 44.484 C 225.122 44.334,225.349 44.654,225.486 45.336 C 225.621 46.013,226.013 46.567,226.520 46.798 C 226.969 47.003,227.355 47.301,227.379 47.460 C 227.478 48.129,227.532 48.291,227.794 48.702 C 227.945 48.940,227.957 49.315,227.822 49.534 C 227.680 49.763,227.726 49.841,227.928 49.716 C 228.122 49.596,228.560 49.805,228.900 50.181 C 229.241 50.557,229.398 50.865,229.250 50.865 C 229.102 50.865,229.169 51.092,229.399 51.369 C 229.629 51.646,229.717 52.035,229.594 52.234 C 229.471 52.433,229.537 52.595,229.740 52.595 C 229.943 52.595,230.359 53.218,230.663 53.979 C 230.968 54.740,231.374 55.363,231.566 55.363 C 231.758 55.363,231.840 55.753,231.749 56.228 C 231.658 56.704,231.718 57.093,231.882 57.093 C 232.046 57.093,232.180 57.316,232.180 57.588 C 232.180 57.861,232.516 58.133,232.927 58.194 C 233.338 58.255,233.713 58.571,233.760 58.898 C 233.807 59.224,234.153 59.924,234.529 60.455 C 234.905 60.985,235.270 61.699,235.340 62.042 C 235.410 62.386,235.623 62.650,235.813 62.630 C 236.003 62.609,236.326 63.263,236.530 64.082 C 236.793 65.136,237.071 65.557,237.482 65.523 C 237.801 65.496,238.062 65.691,238.062 65.955 C 238.062 66.220,238.199 66.436,238.365 66.436 C 238.638 66.436,239.247 68.347,239.156 68.917 C 239.135 69.045,239.501 69.512,239.969 69.955 C 240.436 70.399,240.821 70.987,240.824 71.263 C 240.829 71.647,240.926 71.669,241.236 71.359 C 241.670 70.925,240.306 68.000,239.032 66.630 C 238.689 66.261,238.408 65.770,238.408 65.538 C 238.408 64.932,236.948 62.284,236.614 62.284 C 236.459 62.284,236.332 62.063,236.332 61.794 C 236.332 61.524,236.210 61.251,236.060 61.188 C 235.910 61.125,235.353 60.177,234.823 59.082 C 234.292 57.987,233.675 56.891,233.451 56.646 C 232.979 56.130,232.834 55.877,230.633 51.734 C 229.724 50.023,228.688 48.370,228.331 48.060 C 227.974 47.750,227.682 47.242,227.682 46.932 C 227.682 46.621,227.526 46.367,227.336 46.367 C 227.145 46.367,226.990 45.978,226.990 45.502 C 226.990 45.026,226.834 44.637,226.644 44.637 C 226.453 44.637,226.298 44.403,226.298 44.118 C 226.298 43.832,226.142 43.599,225.952 43.599 C 225.761 43.599,225.606 43.365,225.606 43.080 C 225.606 42.794,225.363 42.561,225.066 42.561 C 224.769 42.561,224.623 42.405,224.740 42.215 C 224.858 42.024,224.862 41.869,224.750 41.869 C 224.638 41.869,224.456 42.101,224.347 42.386 M166.176 55.529 C 165.939 55.803,165.744 56.188,165.744 56.387 C 165.744 56.953,166.685 56.808,166.916 56.206 C 167.030 55.909,167.300 55.775,167.516 55.909 C 167.756 56.057,167.847 55.964,167.750 55.671 C 167.529 55.007,166.697 54.932,166.176 55.529 M164.650 58.131 C 164.398 58.702,164.073 59.170,163.929 59.170 C 163.786 59.170,163.668 59.398,163.668 59.677 C 163.668 59.956,163.048 61.143,162.290 62.316 C 161.006 64.302,160.821 65.052,161.612 65.052 C 161.791 65.052,161.938 64.896,161.938 64.706 C 161.938 64.516,162.249 64.048,162.630 63.668 C 163.010 63.287,163.322 62.742,163.322 62.457 C 163.322 62.171,163.453 61.938,163.612 61.938 C 164.002 61.938,164.762 60.232,164.535 59.865 C 164.436 59.705,164.538 59.514,164.760 59.440 C 164.982 59.366,165.202 59.080,165.248 58.805 C 165.294 58.530,165.441 58.032,165.575 57.699 C 166.001 56.638,165.131 57.045,164.650 58.131 M160.207 65.919 C 159.638 67.415,159.795 67.840,160.655 67.128 C 160.885 66.938,161.462 66.470,161.938 66.088 L 162.803 65.394 161.831 65.741 C 161.273 65.941,160.944 65.951,161.059 65.767 C 161.168 65.590,161.098 65.348,160.905 65.228 C 160.711 65.108,160.397 65.419,160.207 65.919 M158.478 68.966 C 158.478 69.215,158.166 69.754,157.785 70.163 C 157.405 70.571,157.093 71.068,157.093 71.266 C 157.093 71.464,156.938 71.626,156.747 71.626 C 156.557 71.626,156.401 72.023,156.401 72.507 C 156.401 72.992,156.024 73.765,155.563 74.226 C 155.102 74.687,154.625 75.381,154.502 75.767 C 154.379 76.154,154.133 76.471,153.956 76.471 C 153.778 76.471,153.633 76.782,153.633 77.163 C 153.633 77.543,153.511 77.855,153.362 77.855 C 153.213 77.855,152.632 78.828,152.071 80.017 C 151.511 81.207,150.777 82.482,150.440 82.851 C 150.103 83.220,149.827 83.726,149.827 83.975 C 149.827 84.225,149.671 84.429,149.481 84.429 C 149.291 84.429,149.135 84.632,149.135 84.879 C 149.135 85.516,148.321 87.191,148.010 87.195 C 147.868 87.196,147.751 87.359,147.751 87.558 C 147.751 87.756,147.470 88.219,147.128 88.587 C 146.347 89.425,144.983 91.955,144.983 92.564 C 144.983 92.816,144.866 93.074,144.723 93.137 C 144.441 93.263,142.316 96.768,141.506 98.443 C 141.230 99.014,140.926 99.559,140.831 99.654 C 140.600 99.884,139.792 101.335,139.792 101.520 C 139.792 101.600,140.104 101.584,140.484 101.484 C 140.865 101.385,141.176 101.039,141.176 100.717 C 141.176 100.394,141.449 99.829,141.782 99.460 C 142.387 98.790,143.010 97.617,143.392 96.431 C 143.503 96.086,143.749 95.900,143.938 96.017 C 144.137 96.139,144.196 96.003,144.078 95.696 C 143.958 95.383,144.099 95.075,144.419 94.952 C 145.018 94.722,146.021 92.937,146.021 92.102 C 146.021 91.813,146.278 91.292,146.593 90.944 C 146.996 90.499,147.035 90.311,146.724 90.311 C 146.378 90.311,146.372 90.203,146.696 89.813 C 146.923 89.539,147.332 89.400,147.603 89.504 C 147.935 89.631,148.097 89.454,148.097 88.964 C 148.097 88.563,148.262 88.235,148.463 88.235 C 148.665 88.235,148.739 88.089,148.629 87.911 C 148.519 87.732,148.634 87.459,148.886 87.305 C 149.706 86.801,150.794 84.961,150.984 83.755 C 151.105 82.991,151.543 82.284,152.229 81.747 C 152.919 81.207,153.287 80.610,153.287 80.032 C 153.287 79.510,153.679 78.781,154.239 78.259 C 154.990 77.560,155.045 77.424,154.498 77.615 C 153.894 77.826,153.908 77.770,154.611 77.173 C 155.054 76.797,155.327 76.346,155.219 76.170 C 155.110 75.995,155.254 75.762,155.538 75.653 C 155.823 75.544,156.055 75.190,156.055 74.867 C 156.055 74.544,156.153 74.377,156.273 74.496 C 156.521 74.745,157.785 72.412,157.785 71.706 C 157.785 71.449,157.918 71.322,158.081 71.422 C 158.436 71.641,159.170 70.136,159.170 69.188 C 159.170 68.816,159.014 68.512,158.824 68.512 C 158.633 68.512,158.478 68.716,158.478 68.966 M241.330 72.032 C 241.165 72.554,241.279 72.922,241.705 73.233 C 242.042 73.479,242.333 74.114,242.352 74.643 C 242.379 75.364,242.583 75.633,243.166 75.716 C 243.594 75.777,243.945 76.049,243.945 76.322 C 243.945 76.594,244.110 76.817,244.311 76.817 C 244.513 76.817,244.580 76.975,244.460 77.169 C 244.340 77.362,244.716 78.119,245.295 78.850 C 245.874 79.582,246.236 80.305,246.098 80.457 C 245.960 80.609,246.055 80.614,246.308 80.468 C 246.669 80.259,246.723 80.482,246.558 81.517 C 246.443 82.240,246.452 82.729,246.577 82.604 C 246.898 82.283,248.097 82.984,248.097 83.493 C 248.097 83.726,248.408 84.111,248.789 84.349 C 249.170 84.586,249.481 84.945,249.481 85.144 C 249.481 85.344,249.325 85.412,249.135 85.294 C 248.945 85.176,248.789 85.229,248.789 85.410 C 248.789 85.591,249.039 85.835,249.344 85.952 C 249.649 86.069,249.814 86.386,249.710 86.656 C 249.508 87.183,250.268 88.025,250.624 87.669 C 250.743 87.550,251.028 87.867,251.258 88.373 C 251.578 89.076,251.581 89.388,251.271 89.698 C 250.750 90.218,250.751 90.657,251.273 90.657 C 251.752 90.657,254.074 93.061,254.184 93.670 C 254.226 93.900,254.508 94.585,254.811 95.194 C 255.115 95.802,255.363 96.499,255.363 96.743 C 255.363 96.986,255.675 97.284,256.055 97.405 C 256.801 97.641,256.996 98.475,256.356 98.689 C 256.140 98.761,256.446 99.300,257.046 99.899 C 258.051 100.904,258.926 102.445,258.983 103.311 C 259.019 103.853,260.240 105.664,260.788 105.990 C 261.048 106.145,261.163 106.427,261.045 106.619 C 260.924 106.815,261.109 106.919,261.470 106.857 C 262.118 106.746,262.173 106.966,261.764 108.018 C 261.613 108.405,261.780 108.727,262.267 108.987 C 262.667 109.202,262.904 109.525,262.792 109.706 C 262.680 109.887,262.735 110.035,262.913 110.035 C 263.092 110.035,263.443 110.541,263.693 111.159 C 263.944 111.778,264.430 112.536,264.773 112.843 C 265.117 113.151,265.398 113.657,265.398 113.968 C 265.398 114.279,265.554 114.533,265.744 114.533 C 265.934 114.533,266.090 114.783,266.090 115.089 C 266.090 115.441,266.280 115.572,266.609 115.446 C 267.142 115.241,267.316 115.614,266.887 116.042 C 266.419 116.510,266.457 117.368,266.928 116.977 C 267.492 116.509,267.820 116.854,267.820 117.917 C 267.820 118.386,268.532 119.710,269.418 120.887 C 270.296 122.055,271.149 123.361,271.312 123.789 C 271.476 124.217,271.774 124.567,271.976 124.567 C 272.231 124.567,272.234 124.771,271.985 125.236 C 271.700 125.769,271.752 125.945,272.243 126.101 C 272.602 126.215,273.051 126.946,273.319 127.854 C 273.587 128.762,273.986 129.412,274.275 129.412 C 274.548 129.412,274.739 129.606,274.701 129.844 C 274.582 130.585,275.122 131.452,275.591 131.273 C 275.855 131.171,276.036 131.357,276.034 131.727 C 276.024 133.298,276.152 133.910,276.491 133.910 C 276.693 133.910,276.761 133.754,276.644 133.564 C 276.526 133.374,276.595 133.218,276.796 133.218 C 276.998 133.218,277.163 133.529,277.163 133.910 C 277.163 134.315,277.393 134.602,277.719 134.602 C 278.076 134.602,278.200 134.788,278.065 135.121 C 277.949 135.407,277.751 135.899,277.623 136.215 C 277.439 136.673,277.544 136.750,278.142 136.593 C 278.555 136.485,278.893 136.545,278.893 136.725 C 278.893 136.906,279.201 137.384,279.579 137.789 C 280.050 138.295,280.158 138.654,279.923 138.936 C 279.684 139.224,279.842 139.543,280.449 139.998 C 280.925 140.356,281.315 140.850,281.315 141.096 C 281.315 141.343,281.553 141.636,281.844 141.747 C 282.178 141.876,282.297 142.191,282.167 142.602 C 282.053 142.961,282.125 143.253,282.330 143.253 C 282.533 143.253,282.699 143.491,282.699 143.782 C 282.699 144.074,282.933 144.402,283.218 144.512 C 283.503 144.621,283.737 144.933,283.737 145.204 C 283.737 145.475,283.969 145.786,284.254 145.895 C 284.608 146.031,284.703 146.360,284.557 146.943 C 284.389 147.610,284.497 147.833,285.054 147.979 C 285.526 148.102,285.695 148.347,285.557 148.707 C 285.434 149.029,285.493 149.160,285.704 149.030 C 286.112 148.777,286.958 150.412,286.665 150.887 C 286.557 151.061,286.711 151.110,287.006 150.997 C 287.602 150.768,287.740 150.173,287.197 150.173 C 287.007 150.173,286.851 149.922,286.851 149.614 C 286.851 148.874,285.209 145.807,284.005 144.298 C 283.477 143.636,283.045 142.895,283.045 142.650 C 283.045 142.109,282.392 140.934,281.574 140.004 C 281.241 139.626,280.969 139.112,280.969 138.862 C 280.969 138.613,280.813 138.408,280.623 138.408 C 280.433 138.408,280.273 138.214,280.269 137.976 C 280.265 137.738,279.957 137.154,279.585 136.678 C 279.213 136.202,278.905 135.541,278.900 135.208 C 278.896 134.875,278.775 134.602,278.631 134.602 C 278.487 134.602,278.161 134.131,277.907 133.556 C 277.652 132.981,277.263 132.319,277.042 132.086 C 276.821 131.852,276.257 130.882,275.789 129.931 C 274.809 127.939,272.329 124.104,271.910 123.933 C 271.754 123.870,271.626 123.471,271.626 123.047 C 271.626 122.623,271.315 121.942,270.934 121.533 C 270.554 121.124,270.242 120.550,270.242 120.257 C 270.242 119.963,270.087 119.723,269.896 119.723 C 269.706 119.723,269.550 119.514,269.550 119.258 C 269.550 119.002,269.239 118.511,268.858 118.166 C 268.478 117.822,268.166 117.274,268.166 116.950 C 268.166 116.625,267.777 115.786,267.301 115.085 C 266.825 114.384,266.436 113.661,266.436 113.479 C 266.436 113.298,266.280 113.149,266.090 113.149 C 265.900 113.149,265.744 112.945,265.744 112.695 C 265.744 112.445,265.433 111.907,265.052 111.498 C 264.671 111.090,264.360 110.438,264.360 110.049 C 264.360 109.660,264.242 109.343,264.098 109.343 C 263.954 109.343,263.643 108.905,263.406 108.369 C 263.169 107.834,262.664 107.062,262.284 106.654 C 261.903 106.245,261.592 105.749,261.592 105.551 C 261.592 105.353,261.436 105.190,261.246 105.190 C 261.055 105.190,260.900 104.879,260.900 104.498 C 260.900 104.118,260.744 103.806,260.554 103.806 C 260.363 103.806,260.208 103.495,260.208 103.114 C 260.208 102.734,260.052 102.422,259.862 102.422 C 259.671 102.422,259.516 102.120,259.516 101.750 C 259.516 101.380,259.170 100.835,258.747 100.539 C 258.324 100.242,258.129 99.998,258.314 99.995 C 258.499 99.992,258.483 99.875,258.277 99.735 C 258.071 99.595,257.537 98.663,257.090 97.664 C 256.644 96.665,256.150 95.848,255.994 95.848 C 255.837 95.848,255.709 95.536,255.709 95.156 C 255.709 94.775,255.554 94.464,255.363 94.464 C 255.173 94.464,255.017 94.269,255.016 94.031 C 255.016 93.793,254.549 93.054,253.979 92.388 C 253.409 91.721,252.942 90.826,252.942 90.398 C 252.942 89.970,252.785 89.619,252.595 89.619 C 252.405 89.619,252.249 89.386,252.249 89.100 C 252.249 88.815,252.120 88.581,251.962 88.581 C 251.803 88.581,251.453 88.153,251.184 87.630 C 250.914 87.106,250.615 86.600,250.520 86.505 C 250.424 86.410,249.747 85.125,249.014 83.651 C 248.282 82.176,247.572 80.969,247.435 80.969 C 247.299 80.969,246.974 80.424,246.713 79.758 C 246.451 79.092,246.111 78.547,245.956 78.547 C 245.801 78.547,245.675 78.235,245.675 77.855 C 245.675 77.474,245.519 77.163,245.329 77.163 C 245.138 77.163,244.983 76.851,244.983 76.471 C 244.983 76.090,244.853 75.779,244.695 75.779 C 244.537 75.779,244.187 75.350,243.917 74.827 C 243.325 73.680,242.724 73.010,242.287 73.010 C 242.110 73.010,242.039 72.621,242.130 72.145 C 242.333 71.083,241.662 70.989,241.330 72.032 M139.100 102.285 C 139.100 102.567,138.789 103.131,138.408 103.540 C 138.028 103.948,137.716 104.643,137.716 105.083 C 137.716 105.522,137.561 105.882,137.370 105.882 C 137.180 105.882,137.024 106.116,137.024 106.401 C 137.024 106.687,136.907 106.921,136.765 106.921 C 136.622 106.921,136.045 107.650,135.483 108.539 C 134.194 110.579,132.429 114.288,132.879 114.009 C 133.065 113.894,133.218 113.965,133.218 114.166 C 133.218 114.368,132.935 114.533,132.590 114.533 C 132.015 114.533,130.450 116.845,130.450 117.694 C 130.450 117.875,130.138 118.356,129.758 118.765 C 129.377 119.173,129.066 119.712,129.066 119.961 C 129.066 120.211,128.910 120.415,128.720 120.415 C 128.529 120.415,128.374 120.655,128.374 120.949 C 128.374 121.242,128.062 121.816,127.682 122.225 C 127.301 122.634,126.990 123.172,126.990 123.422 C 126.990 123.671,126.834 123.875,126.644 123.875 C 126.453 123.875,126.298 124.352,126.298 124.934 C 126.298 125.646,126.167 125.912,125.898 125.746 C 125.630 125.580,125.594 125.652,125.787 125.965 C 126.015 126.335,126.151 126.298,126.446 125.785 C 126.650 125.430,127.229 124.694,127.732 124.148 C 128.277 123.558,128.581 122.900,128.483 122.525 C 128.386 122.153,128.542 121.809,128.865 121.685 C 129.166 121.569,129.412 121.266,129.412 121.010 C 129.412 120.755,129.690 120.244,130.029 119.875 C 131.265 118.533,131.834 117.473,131.834 116.512 C 131.834 115.945,131.980 115.621,132.180 115.744 C 132.370 115.862,132.526 115.689,132.526 115.361 C 132.526 115.032,132.628 114.866,132.754 114.991 C 133.147 115.385,133.910 114.484,133.910 113.625 C 133.910 113.173,134.084 112.803,134.296 112.803 C 134.510 112.803,134.603 112.499,134.505 112.123 C 134.404 111.736,134.489 111.475,134.702 111.517 C 135.123 111.601,136.351 109.315,136.104 108.910 C 136.017 108.767,136.110 108.651,136.312 108.651 C 136.513 108.651,136.680 108.456,136.681 108.218 C 136.683 107.980,137.149 107.418,137.717 106.970 C 138.285 106.521,138.669 106.025,138.572 105.867 C 138.474 105.708,138.670 105.422,139.007 105.231 C 139.524 104.937,139.552 104.773,139.188 104.178 C 138.804 103.551,138.853 103.449,139.620 103.256 C 140.660 102.995,140.792 101.901,139.792 101.825 C 139.389 101.795,139.100 101.986,139.100 102.285 M124.453 127.532 C 124.129 128.212,123.944 128.896,124.041 129.053 C 124.138 129.211,123.985 129.429,123.700 129.538 C 123.416 129.647,123.183 130.039,123.183 130.410 C 123.183 130.781,123.004 131.144,122.785 131.217 C 122.567 131.290,122.461 131.570,122.551 131.839 C 122.650 132.136,123.107 131.628,123.717 130.545 C 124.268 129.563,125.017 128.683,125.380 128.588 C 125.781 128.483,125.966 128.219,125.851 127.917 C 125.746 127.644,125.842 127.222,126.065 126.981 C 126.377 126.643,126.371 126.598,126.038 126.786 C 125.800 126.921,125.606 126.866,125.606 126.664 C 125.606 125.902,125.020 126.343,124.453 127.532 M121.205 133.484 C 120.783 134.004,120.082 135.130,119.648 135.986 C 119.213 136.843,118.741 137.595,118.599 137.659 C 118.019 137.916,118.386 138.708,119.062 138.657 C 119.909 138.593,120.937 136.864,120.803 135.728 C 120.735 135.143,120.848 135.003,121.260 135.161 C 121.651 135.311,121.749 135.220,121.603 134.840 C 121.490 134.545,121.706 134.003,122.090 133.620 C 122.469 133.240,122.689 132.839,122.578 132.728 C 122.231 132.381,121.996 132.510,121.205 133.484 M117.647 139.554 C 117.647 139.804,117.338 140.340,116.960 140.746 C 115.773 142.020,114.376 145.310,114.829 145.763 C 115.126 146.060,115.225 145.969,115.225 145.398 C 115.225 144.709,115.578 144.466,116.375 144.604 C 116.532 144.632,116.589 144.533,116.502 144.386 C 116.174 143.829,116.924 142.570,117.461 142.776 C 118.026 142.993,118.210 142.390,117.680 142.062 C 117.243 141.792,117.613 140.572,118.200 140.346 C 118.849 140.097,118.822 139.100,118.166 139.100 C 117.881 139.100,117.647 139.305,117.647 139.554 M113.841 146.208 C 113.841 146.502,113.529 147.076,113.149 147.485 C 112.768 147.893,112.457 148.432,112.457 148.681 C 112.457 148.931,112.301 149.135,112.111 149.135 C 111.920 149.135,111.764 149.485,111.763 149.913 C 111.762 150.342,111.281 151.205,110.694 151.831 C 110.106 152.458,109.710 153.190,109.813 153.457 C 109.936 153.778,109.828 153.878,109.498 153.752 C 109.158 153.621,108.997 153.794,108.997 154.288 C 108.997 154.689,108.880 155.019,108.737 155.020 C 108.434 155.023,107.612 156.693,107.612 157.307 C 107.612 157.538,107.496 157.780,107.353 157.843 C 106.903 158.043,105.696 159.957,104.663 162.111 C 104.114 163.253,103.581 164.265,103.477 164.360 C 102.984 164.810,102.420 166.153,102.601 166.446 C 102.713 166.626,102.594 166.693,102.337 166.595 C 101.873 166.417,100.346 168.800,100.346 169.702 C 100.346 169.940,100.035 170.417,99.654 170.761 C 99.273 171.106,98.962 171.522,98.962 171.687 C 98.962 171.852,98.578 172.568,98.109 173.277 C 97.639 173.987,97.066 175.110,96.835 175.773 C 96.604 176.436,96.132 177.283,95.786 177.655 C 95.440 178.027,94.962 178.769,94.725 179.304 C 94.489 179.839,94.177 180.277,94.033 180.277 C 93.889 180.277,93.772 180.510,93.772 180.796 C 93.772 181.081,93.616 181.315,93.426 181.315 C 93.235 181.315,93.080 181.704,93.080 182.180 C 93.080 182.656,92.950 183.045,92.792 183.045 C 92.634 183.045,92.284 183.473,92.013 183.997 C 91.743 184.520,91.250 185.250,90.917 185.619 C 90.229 186.381,90.139 187.050,90.681 187.385 C 90.885 187.511,91.137 187.280,91.245 186.866 C 91.367 186.402,91.626 186.191,91.932 186.309 C 92.204 186.413,92.329 186.345,92.212 186.155 C 92.096 185.967,92.282 185.801,92.627 185.786 C 92.990 185.770,93.071 185.685,92.820 185.584 C 92.241 185.350,92.275 184.937,92.928 184.284 C 93.225 183.987,93.492 183.431,93.520 183.048 C 93.549 182.666,93.695 182.353,93.845 182.353 C 93.995 182.353,94.118 182.127,94.118 181.851 C 94.118 181.575,94.316 181.225,94.558 181.073 C 95.324 180.592,96.194 178.951,95.980 178.392 C 95.834 178.011,95.986 177.855,96.503 177.855 C 97.232 177.855,97.281 177.775,97.362 176.458 C 97.385 176.070,97.573 175.642,97.778 175.506 C 97.983 175.371,98.383 174.792,98.666 174.221 C 99.431 172.678,100.120 171.538,100.606 171.009 C 100.843 170.751,101.038 170.433,101.038 170.304 C 101.038 170.175,101.577 169.464,102.236 168.724 C 103.201 167.639,103.366 167.253,103.086 166.729 C 102.814 166.221,102.873 166.029,103.359 165.848 C 104.000 165.609,104.973 164.450,105.044 163.841 C 105.067 163.651,105.109 163.245,105.138 162.940 C 105.167 162.635,105.582 161.963,106.060 161.446 C 106.538 160.930,107.242 159.895,107.624 159.147 C 108.006 158.398,108.489 157.785,108.698 157.785 C 108.916 157.785,109.007 157.418,108.912 156.920 C 108.794 156.306,109.004 155.796,109.633 155.167 C 110.516 154.284,110.780 153.666,110.773 152.501 C 110.770 152.164,110.915 151.979,111.094 152.089 C 111.273 152.200,111.563 151.913,111.739 151.452 C 111.914 150.991,112.303 150.519,112.603 150.404 C 112.903 150.289,113.149 149.923,113.149 149.591 C 113.149 149.259,113.577 148.620,114.100 148.171 C 114.624 147.722,114.860 147.452,114.625 147.570 C 114.312 147.728,114.254 147.503,114.408 146.730 C 114.544 146.054,114.479 145.675,114.230 145.675 C 114.016 145.675,113.841 145.915,113.841 146.208 M287.393 151.973 C 287.526 152.393,287.849 152.950,288.111 153.212 C 288.373 153.475,288.497 153.836,288.386 154.016 C 288.275 154.195,288.369 154.300,288.596 154.247 C 288.823 154.195,289.056 154.433,289.113 154.777 C 289.171 155.121,289.623 155.807,290.118 156.302 C 290.613 156.797,291.109 157.567,291.221 158.013 C 291.333 158.459,291.549 158.824,291.701 158.824 C 291.852 158.824,291.895 159.135,291.796 159.516 C 291.696 159.896,291.769 160.208,291.958 160.208 C 292.147 160.208,292.395 160.677,292.510 161.251 C 292.643 161.920,293.016 162.408,293.544 162.609 C 294.412 162.939,294.810 163.614,294.810 164.755 C 294.810 165.131,294.965 165.343,295.156 165.225 C 295.346 165.107,295.502 165.285,295.502 165.620 C 295.502 166.048,295.610 166.120,295.868 165.862 C 296.126 165.604,296.024 165.148,295.525 164.322 C 295.135 163.677,294.720 162.915,294.604 162.630 C 294.007 161.170,292.877 159.170,292.648 159.170 C 292.505 159.170,292.388 158.965,292.388 158.716 C 292.388 158.466,292.076 157.928,291.696 157.519 C 291.315 157.111,291.003 156.536,291.003 156.243 C 291.003 155.949,290.848 155.709,290.657 155.709 C 290.467 155.709,290.311 155.398,290.311 155.017 C 290.311 154.637,290.156 154.325,289.965 154.325 C 289.775 154.325,289.619 154.167,289.619 153.974 C 289.619 153.781,289.269 153.083,288.841 152.422 C 287.953 151.050,287.007 150.758,287.393 151.973 M296.278 166.609 C 296.374 167.109,296.282 167.478,296.059 167.483 C 295.848 167.488,296.103 167.758,296.626 168.082 C 297.150 168.407,297.578 168.782,297.578 168.916 C 297.578 169.711,298.336 171.007,298.629 170.714 C 298.981 170.361,298.318 168.520,297.837 168.515 C 297.695 168.513,297.578 168.201,297.578 167.820 C 297.578 167.439,297.422 167.128,297.232 167.128 C 297.042 167.128,296.886 166.817,296.886 166.436 C 296.886 166.055,296.712 165.744,296.499 165.744 C 296.274 165.744,296.182 166.104,296.278 166.609 M298.962 171.107 C 298.962 171.393,299.114 171.626,299.299 171.626 C 299.519 171.626,299.519 171.937,299.299 172.514 C 298.877 173.625,298.879 173.702,299.328 173.702 C 299.530 173.702,299.582 173.520,299.445 173.298 C 299.274 173.022,299.387 172.967,299.799 173.125 C 300.131 173.252,300.468 173.356,300.547 173.356 C 300.627 173.356,300.692 173.900,300.692 174.565 C 300.692 175.398,300.907 175.907,301.384 176.205 C 301.765 176.443,302.076 176.755,302.076 176.900 C 302.076 177.044,302.393 177.480,302.781 177.867 C 303.168 178.255,303.399 178.711,303.294 178.881 C 303.189 179.052,303.261 179.289,303.455 179.408 C 303.648 179.528,303.806 179.781,303.806 179.972 C 303.806 180.162,303.651 180.221,303.460 180.104 C 303.270 179.986,303.114 180.055,303.114 180.256 C 303.114 180.458,303.503 180.623,303.979 180.623 C 305.090 180.623,304.817 179.144,303.468 177.855 C 303.194 177.593,300.852 173.380,299.863 171.369 C 299.425 170.480,298.962 170.345,298.962 171.107 M304.813 181.920 C 304.953 182.444,305.289 182.872,305.561 182.872 C 305.833 182.872,306.075 183.067,306.099 183.304 C 306.122 183.542,306.161 183.978,306.185 184.272 C 306.209 184.566,306.595 185.173,307.043 185.621 C 307.896 186.474,308.556 187.740,307.955 187.368 C 307.766 187.252,307.612 187.321,307.612 187.523 C 307.612 187.724,307.924 187.889,308.304 187.889 C 308.697 187.889,308.997 187.659,308.997 187.356 C 308.997 187.062,308.685 186.488,308.304 186.079 C 307.924 185.671,307.612 185.132,307.612 184.883 C 307.612 184.633,307.457 184.429,307.266 184.429 C 307.076 184.429,306.920 184.225,306.920 183.975 C 306.920 183.726,306.609 183.187,306.228 182.779 C 305.848 182.370,305.536 181.796,305.536 181.502 C 305.536 181.209,305.316 180.969,305.047 180.969 C 304.683 180.969,304.623 181.211,304.813 181.920 M89.612 187.803 C 89.607 188.136,89.299 188.798,88.927 189.273 C 88.555 189.749,88.247 190.314,88.243 190.529 C 88.239 190.743,88.002 191.113,87.716 191.349 C 87.052 191.901,87.059 192.260,87.739 192.521 C 88.148 192.678,88.230 192.569,88.073 192.076 C 87.920 191.593,88.027 191.436,88.483 191.472 C 88.879 191.505,89.140 191.244,89.211 190.744 C 89.272 190.316,89.466 189.965,89.643 189.965 C 89.821 189.965,89.965 189.654,89.965 189.273 C 89.965 188.893,90.107 188.581,90.279 188.581 C 90.452 188.581,90.511 188.270,90.412 187.889 C 90.189 187.037,89.622 186.975,89.612 187.803 M308.997 188.332 C 308.997 188.922,309.719 190.311,310.026 190.311 C 310.617 190.311,310.424 189.420,309.689 188.754 C 309.308 188.410,308.997 188.220,308.997 188.332 M310.268 190.539 C 310.143 190.664,310.213 190.975,310.424 191.229 C 310.636 191.484,310.733 191.980,310.641 192.332 C 310.539 192.720,310.732 193.133,311.133 193.383 C 311.495 193.609,311.706 193.932,311.602 194.101 C 311.412 194.408,313.136 195.976,313.388 195.724 C 313.585 195.527,312.733 193.772,312.440 193.772 C 312.301 193.772,312.205 193.577,312.226 193.339 C 312.272 192.808,311.031 190.311,310.720 190.311 C 310.597 190.311,310.394 190.414,310.268 190.539 M86.372 193.586 C 86.065 194.056,85.813 194.722,85.813 195.067 C 85.813 195.412,85.502 195.919,85.121 196.194 C 84.740 196.468,84.429 196.825,84.429 196.986 C 84.429 197.148,83.995 197.931,83.464 198.727 C 82.933 199.522,82.116 200.952,81.648 201.903 C 81.180 202.855,80.524 203.935,80.191 204.304 C 79.857 204.673,79.585 205.112,79.585 205.280 C 79.585 205.448,79.351 205.819,79.066 206.105 C 78.780 206.390,78.547 207.002,78.547 207.464 C 78.547 207.926,78.391 208.304,78.201 208.304 C 78.010 208.304,77.855 208.538,77.855 208.824 C 77.855 209.109,77.699 209.343,77.509 209.343 C 77.318 209.343,77.163 209.505,77.163 209.703 C 77.163 209.901,76.851 210.398,76.471 210.806 C 76.090 211.215,75.779 211.753,75.779 212.003 C 75.779 212.253,75.623 212.457,75.433 212.457 C 75.242 212.457,75.087 212.768,75.087 213.149 C 75.087 213.529,74.931 213.841,74.740 213.841 C 74.550 213.841,74.394 214.152,74.394 214.533 C 74.394 214.913,74.239 215.225,74.048 215.225 C 73.858 215.225,73.702 215.458,73.702 215.744 C 73.702 216.029,73.547 216.263,73.356 216.263 C 73.166 216.263,73.010 216.497,73.010 216.782 C 73.010 217.067,72.855 217.301,72.664 217.301 C 72.474 217.301,72.318 217.472,72.318 217.680 C 72.318 217.889,72.034 218.473,71.687 218.978 C 71.339 219.483,70.840 220.441,70.577 221.107 C 70.314 221.773,69.936 222.508,69.738 222.739 C 68.693 223.957,68.512 224.219,68.512 224.513 C 68.512 224.689,68.824 224.914,69.204 225.014 C 69.713 225.147,69.896 225.024,69.896 224.551 C 69.896 223.472,70.633 222.214,71.379 222.019 C 71.975 221.864,72.016 221.750,71.641 221.298 C 71.340 220.935,71.321 220.761,71.584 220.761 C 71.798 220.761,71.972 220.518,71.972 220.222 C 71.972 219.925,72.128 219.779,72.318 219.896 C 72.509 220.014,72.664 219.799,72.664 219.418 C 72.664 219.037,72.820 218.630,73.010 218.512 C 73.201 218.394,73.356 217.927,73.356 217.473 C 73.356 217.019,73.667 216.431,74.046 216.165 C 74.426 215.899,74.633 215.579,74.508 215.453 C 74.382 215.328,74.456 215.225,74.672 215.225 C 74.888 215.225,74.983 215.011,74.882 214.749 C 74.765 214.444,75.031 214.189,75.622 214.041 C 76.375 213.852,76.515 213.653,76.383 212.960 C 76.275 212.395,76.378 212.111,76.692 212.111 C 76.951 212.111,77.163 211.812,77.163 211.447 C 77.163 210.356,77.535 209.720,78.056 209.920 C 78.379 210.044,78.547 209.872,78.547 209.417 C 78.547 209.036,78.772 208.638,79.047 208.533 C 79.322 208.427,79.657 207.749,79.791 207.025 C 79.925 206.301,80.323 205.458,80.675 205.150 C 81.027 204.842,81.315 204.258,81.315 203.852 C 81.315 203.416,81.534 203.114,81.852 203.114 C 82.403 203.114,83.523 200.945,83.472 199.976 C 83.456 199.677,84.052 198.841,84.797 198.119 C 85.541 197.396,86.067 196.671,85.966 196.507 C 85.864 196.343,86.102 195.775,86.493 195.246 C 87.259 194.210,87.685 192.734,87.217 192.734 C 87.060 192.734,86.679 193.117,86.372 193.586 M313.289 196.939 C 313.145 197.171,313.193 197.245,313.402 197.116 C 313.600 196.994,313.955 197.125,314.190 197.409 C 314.473 197.750,314.490 197.924,314.240 197.924 C 314.032 197.924,313.950 198.153,314.058 198.432 C 314.165 198.711,314.425 198.906,314.636 198.864 C 314.847 198.823,315.032 199.022,315.047 199.308 C 315.087 200.093,316.081 202.106,317.080 203.425 C 317.569 204.072,317.895 204.723,317.804 204.871 C 317.712 205.019,317.951 205.240,318.334 205.362 C 318.717 205.483,319.031 205.832,319.031 206.136 C 319.031 206.441,319.133 206.588,319.257 206.464 C 319.650 206.071,320.341 207.844,320.161 208.785 C 320.035 209.443,320.133 209.689,320.523 209.689 C 320.816 209.689,321.280 210.117,321.554 210.640 C 321.827 211.163,322.305 212.059,322.615 212.630 C 322.925 213.201,323.180 213.825,323.181 214.017 C 323.182 214.209,323.478 214.550,323.838 214.775 C 324.405 215.130,324.469 215.095,324.316 214.512 C 324.220 214.143,324.003 213.841,323.835 213.841 C 323.667 213.841,323.529 213.387,323.529 212.832 C 323.529 212.277,323.410 211.770,323.264 211.707 C 322.997 211.591,321.025 208.316,320.069 206.401 C 319.784 205.830,319.473 205.285,319.377 205.190 C 319.281 205.095,318.982 204.589,318.713 204.066 C 318.443 203.542,318.020 203.114,317.772 203.114 C 317.522 203.114,317.408 202.892,317.515 202.613 C 317.621 202.337,317.382 201.763,316.985 201.337 C 316.588 200.910,316.263 200.279,316.263 199.935 C 316.263 199.590,316.107 199.308,315.917 199.308 C 315.727 199.308,315.571 199.137,315.571 198.929 C 315.571 197.739,313.767 196.166,313.289 196.939 M324.430 216.122 C 324.291 216.483,324.444 216.732,324.872 216.844 C 325.261 216.946,325.474 217.247,325.397 217.590 C 325.326 217.914,325.949 218.919,326.822 219.887 C 327.855 221.032,328.374 221.408,328.374 221.011 C 328.374 220.683,328.218 220.415,328.028 220.415 C 327.837 220.415,327.682 220.104,327.682 219.723 C 327.682 219.343,327.555 219.031,327.400 219.031 C 327.245 219.031,326.905 218.486,326.644 217.820 C 326.382 217.154,326.042 216.609,325.887 216.609 C 325.732 216.609,325.606 216.375,325.606 216.090 C 325.606 215.399,324.698 215.424,324.430 216.122 M328.374 222.241 C 328.374 222.484,328.643 223.068,328.973 223.538 C 329.302 224.009,329.575 224.627,329.578 224.913 C 329.582 225.199,329.791 225.390,330.043 225.337 C 330.358 225.272,330.432 225.462,330.280 225.943 C 330.074 226.590,330.368 226.820,331.228 226.685 C 331.371 226.662,331.488 226.799,331.488 226.990 C 331.488 227.180,331.327 227.336,331.130 227.336 C 330.905 227.336,330.932 227.625,331.204 228.114 C 331.631 228.884,331.706 229.092,331.791 229.747 C 331.814 229.931,332.067 229.992,332.353 229.883 C 332.713 229.745,332.872 229.907,332.872 230.413 C 332.872 230.814,333.046 231.142,333.258 231.142 C 333.480 231.142,333.564 231.451,333.455 231.868 C 333.350 232.268,333.353 232.507,333.460 232.399 C 333.567 232.292,333.946 232.360,334.302 232.550 C 335.434 233.156,334.824 231.320,333.478 230.067 C 333.144 229.757,332.872 229.262,332.872 228.967 C 332.872 228.673,332.755 228.379,332.612 228.316 C 332.470 228.253,332.070 227.578,331.724 226.817 C 330.203 223.470,328.374 220.972,328.374 222.241 M67.820 225.779 C 67.820 226.064,67.664 226.298,67.474 226.298 C 67.284 226.298,67.128 226.609,67.128 226.990 C 67.128 227.370,66.972 227.682,66.782 227.682 C 66.592 227.682,66.436 227.922,66.436 228.215 C 66.436 228.509,66.125 229.083,65.744 229.491 C 65.363 229.900,65.052 230.439,65.052 230.688 C 65.052 230.938,64.914 231.142,64.746 231.142 C 64.578 231.142,64.034 231.959,63.536 232.958 C 62.636 234.767,62.072 235.756,60.624 238.062 C 59.675 239.574,59.652 240.336,60.554 240.336 C 61.176 240.336,61.454 239.697,61.283 238.658 C 61.259 238.510,61.457 238.305,61.723 238.203 C 62.004 238.096,62.134 237.737,62.032 237.348 C 61.936 236.980,62.020 236.678,62.220 236.678 C 62.420 236.678,62.685 236.357,62.809 235.965 C 62.934 235.573,63.412 235.081,63.871 234.871 C 64.422 234.620,64.706 234.204,64.706 233.644 C 64.706 233.042,64.853 232.854,65.214 232.993 C 65.600 233.141,65.712 232.921,65.681 232.078 C 65.632 230.736,66.018 229.412,66.459 229.412 C 66.637 229.412,66.782 229.213,66.782 228.970 C 66.782 228.726,67.054 228.270,67.388 227.956 C 68.921 226.508,69.362 225.260,68.339 225.260 C 68.054 225.260,67.820 225.493,67.820 225.779 M335.024 234.244 C 335.040 234.809,335.167 235.200,335.307 235.113 C 335.447 235.027,335.647 235.281,335.751 235.679 C 335.855 236.076,336.083 236.313,336.259 236.204 C 336.438 236.094,336.502 236.405,336.405 236.913 C 336.286 237.537,336.355 237.743,336.628 237.574 C 336.877 237.421,337.024 237.595,337.024 238.042 C 337.024 238.434,337.184 238.754,337.379 238.754 C 337.574 238.754,337.881 239.144,338.062 239.619 C 338.430 240.588,339.100 240.785,339.100 239.926 C 339.100 239.309,337.695 236.572,337.284 236.390 C 337.141 236.326,337.024 236.130,337.024 235.952 C 337.024 235.512,335.524 233.228,335.231 233.222 C 335.101 233.220,335.008 233.680,335.024 234.244 M339.057 240.657 C 338.867 241.420,339.036 241.818,339.906 242.647 C 340.498 243.212,340.823 243.810,340.705 244.118 C 340.596 244.403,340.657 244.637,340.841 244.637 C 341.026 244.637,341.176 244.948,341.176 245.329 C 341.176 245.713,341.407 246.021,341.696 246.021 C 341.981 246.021,342.215 246.176,342.215 246.367 C 342.215 246.557,342.370 246.713,342.561 246.713 C 342.751 246.713,342.907 246.479,342.907 246.194 C 342.907 245.908,342.751 245.675,342.561 245.675 C 342.370 245.675,342.215 245.363,342.215 244.983 C 342.215 244.602,342.059 244.291,341.869 244.291 C 341.678 244.291,341.522 244.057,341.522 243.772 C 341.522 243.486,341.367 243.253,341.176 243.253 C 340.986 243.253,340.825 242.980,340.819 242.647 C 340.802 241.757,339.227 239.978,339.057 240.657 M58.651 241.994 C 57.808 242.939,56.773 244.594,56.513 245.415 C 56.407 245.748,56.183 246.021,56.015 246.021 C 55.847 246.021,55.709 246.397,55.709 246.857 C 55.709 247.317,55.583 247.745,55.430 247.809 C 54.073 248.368,52.474 252.595,53.620 252.595 C 53.993 252.595,54.379 251.578,54.148 251.204 C 54.049 251.044,54.126 250.815,54.320 250.696 C 54.513 250.576,54.672 250.215,54.673 249.893 C 54.675 249.571,55.140 249.044,55.708 248.721 C 56.325 248.369,56.666 247.942,56.556 247.656 C 56.301 246.989,57.017 245.240,57.439 245.501 C 57.629 245.619,57.785 245.541,57.785 245.329 C 57.785 245.116,57.941 245.038,58.131 245.156 C 58.322 245.273,58.478 245.218,58.478 245.032 C 58.478 244.846,58.283 244.616,58.045 244.520 C 57.712 244.386,57.710 244.339,58.037 244.318 C 58.366 244.297,59.862 241.810,59.862 241.284 C 59.862 240.961,59.256 241.316,58.651 241.994 M342.647 247.288 C 342.011 247.544,342.120 248.366,342.820 248.592 C 343.482 248.806,344.291 250.288,344.291 251.289 C 344.291 251.644,344.669 252.064,345.156 252.249 C 345.631 252.430,346.021 252.815,346.021 253.106 C 346.021 253.396,346.186 253.633,346.389 253.633 C 346.591 253.633,346.719 253.906,346.674 254.239 C 346.567 255.031,347.795 257.088,348.377 257.091 C 348.626 257.092,348.745 257.231,348.641 257.399 C 348.537 257.567,348.729 258.073,349.067 258.523 C 349.405 258.974,349.869 259.732,350.098 260.208 C 350.720 261.501,351.323 262.390,351.903 262.870 C 352.266 263.170,352.292 263.303,351.990 263.311 C 351.404 263.326,351.435 264.014,352.022 264.014 C 352.277 264.014,352.780 264.559,353.138 265.225 C 353.497 265.891,353.892 266.436,354.016 266.436 C 354.301 266.436,354.905 267.991,355.202 269.488 C 355.357 270.276,355.581 270.579,355.911 270.452 C 356.176 270.350,356.369 270.378,356.340 270.514 C 356.214 271.106,356.852 272.631,357.298 272.801 C 357.566 272.904,357.790 273.344,357.796 273.778 C 357.808 274.573,358.516 275.779,358.973 275.779 C 359.431 275.779,360.253 276.809,360.053 277.132 C 359.944 277.309,360.080 277.678,360.355 277.953 C 360.728 278.326,360.755 278.552,360.462 278.846 C 360.169 279.139,360.218 279.239,360.657 279.239 C 361.186 279.239,361.403 279.627,361.287 280.363 C 361.251 280.590,361.717 280.740,362.297 280.688 C 362.399 280.679,362.515 281.066,362.555 281.548 C 362.595 282.030,363.027 282.899,363.516 283.479 C 364.148 284.231,364.285 284.608,363.990 284.790 C 363.711 284.962,363.818 285.122,364.319 285.281 C 364.728 285.411,364.973 285.661,364.863 285.838 C 364.754 286.015,364.837 286.159,365.047 286.159 C 365.257 286.159,365.383 286.425,365.327 286.751 C 365.264 287.113,365.594 287.523,366.176 287.808 C 367.273 288.344,367.465 289.096,366.436 288.827 C 366.055 288.728,365.744 288.787,365.744 288.960 C 365.744 289.132,365.961 289.273,366.225 289.273 C 366.490 289.273,366.809 289.681,366.934 290.179 C 367.059 290.677,367.249 290.998,367.356 290.891 C 367.462 290.785,368.000 291.190,368.550 291.793 C 369.100 292.395,369.550 292.727,369.550 292.530 C 369.550 292.333,369.239 291.838,368.858 291.429 C 368.478 291.021,368.166 290.431,368.166 290.120 C 368.166 289.517,367.227 287.675,366.545 286.942 C 366.320 286.700,366.037 286.191,365.916 285.811 C 365.796 285.432,365.552 285.121,365.375 285.121 C 365.197 285.121,365.052 284.919,365.052 284.671 C 365.052 284.034,364.238 282.359,363.927 282.356 C 363.785 282.354,363.668 282.119,363.668 281.834 C 363.668 281.548,363.512 281.315,363.322 281.315 C 363.131 281.315,362.976 281.081,362.976 280.796 C 362.976 280.510,362.820 280.277,362.630 280.277 C 362.439 280.277,362.284 280.067,362.284 279.811 C 362.284 279.555,361.972 279.064,361.592 278.720 C 361.211 278.375,360.900 277.728,360.900 277.282 C 360.900 276.836,360.744 276.471,360.554 276.471 C 360.363 276.471,360.208 276.307,360.208 276.108 C 360.208 275.908,359.691 274.935,359.060 273.945 C 358.429 272.955,357.691 271.639,357.419 271.021 C 357.147 270.402,356.807 269.896,356.663 269.896 C 356.519 269.896,356.401 269.585,356.401 269.204 C 356.401 268.824,356.282 268.512,356.137 268.512 C 355.992 268.512,355.488 267.889,355.017 267.128 C 354.547 266.367,354.043 265.744,353.898 265.744 C 353.752 265.744,353.633 265.422,353.633 265.028 C 353.633 264.634,353.166 263.633,352.595 262.803 C 352.024 261.973,351.557 261.127,351.557 260.924 C 351.557 260.720,351.419 260.554,351.250 260.554 C 351.082 260.554,350.683 259.970,350.363 259.256 C 349.607 257.568,348.376 255.237,348.123 255.017 C 347.834 254.766,346.851 253.038,345.809 250.952 C 345.310 249.952,344.686 249.135,344.423 249.135 C 344.160 249.135,343.961 249.018,343.982 248.875 C 344.048 248.422,343.527 247.058,343.299 247.086 C 343.178 247.101,342.885 247.192,342.647 247.288 M52.249 252.434 C 52.249 252.726,51.994 253.354,51.683 253.829 C 51.372 254.304,51.194 254.770,51.288 254.863 C 51.590 255.165,52.595 254.612,52.595 254.144 C 52.595 253.895,52.772 253.632,52.987 253.560 C 53.224 253.481,53.283 253.129,53.137 252.666 C 52.860 251.796,52.249 251.636,52.249 252.434 M50.071 256.492 C 49.730 256.918,49.035 258.123,48.527 259.170 C 48.019 260.216,47.481 261.125,47.331 261.188 C 47.181 261.251,47.059 261.524,47.059 261.794 C 47.059 262.063,46.903 262.284,46.713 262.284 C 46.522 262.284,46.367 262.517,46.367 262.803 C 46.367 263.088,46.247 263.322,46.101 263.322 C 45.955 263.322,45.466 264.178,45.014 265.225 C 44.562 266.272,44.098 267.129,43.982 267.129 C 43.866 267.130,43.304 268.025,42.734 269.119 C 42.163 270.212,41.579 271.159,41.436 271.223 C 41.096 271.374,41.099 272.318,41.439 272.318 C 41.584 272.318,41.900 272.001,42.143 271.613 C 42.385 271.225,42.732 270.999,42.914 271.112 C 43.096 271.224,43.165 271.108,43.067 270.854 C 42.969 270.599,43.218 270.038,43.620 269.607 C 44.022 269.175,44.266 268.601,44.162 268.331 C 44.059 268.060,44.256 267.640,44.602 267.397 C 44.947 267.154,45.340 266.605,45.475 266.176 C 45.619 265.723,46.000 265.398,46.390 265.398 C 46.758 265.398,47.059 265.242,47.059 265.052 C 47.059 264.862,46.892 264.706,46.689 264.706 C 46.485 264.706,46.372 264.356,46.437 263.927 C 46.503 263.499,46.759 263.192,47.006 263.244 C 47.254 263.296,47.364 263.190,47.252 263.008 C 47.139 262.826,47.350 262.465,47.721 262.205 C 48.091 261.946,48.500 261.313,48.629 260.798 C 48.758 260.283,49.062 259.862,49.303 259.862 C 49.772 259.862,50.740 257.878,50.594 257.219 C 50.546 257.003,50.753 256.732,51.054 256.616 C 51.355 256.501,51.504 256.249,51.386 256.058 C 51.063 255.536,50.758 255.637,50.071 256.492 M40.917 272.909 C 40.679 272.997,40.484 273.250,40.483 273.472 C 40.482 273.694,40.015 274.373,39.445 274.981 C 38.875 275.589,38.408 276.329,38.408 276.625 C 38.408 276.921,38.253 277.163,38.062 277.163 C 37.872 277.163,37.716 277.474,37.716 277.855 C 37.716 278.235,37.590 278.547,37.435 278.547 C 37.280 278.547,36.940 279.092,36.678 279.758 C 36.417 280.424,36.115 280.969,36.008 280.969 C 35.717 280.970,34.025 283.784,33.730 284.759 C 33.588 285.226,33.260 285.821,32.999 286.081 C 32.739 286.342,32.526 286.775,32.526 287.045 C 32.526 287.497,31.968 288.316,30.882 289.460 C 30.029 290.360,30.546 291.115,31.419 290.242 C 31.742 289.919,31.834 289.919,31.834 290.242 C 31.834 290.471,31.990 290.657,32.180 290.657 C 32.681 290.657,32.606 289.360,32.093 289.176 C 31.795 289.068,31.884 288.819,32.384 288.368 C 32.782 288.010,33.214 287.284,33.344 286.756 C 33.586 285.777,34.313 284.915,35.497 284.205 C 35.998 283.905,36.063 283.708,35.764 283.395 C 35.463 283.080,35.622 282.738,36.420 281.975 C 36.999 281.421,37.380 280.969,37.267 280.969 C 36.759 280.969,37.831 278.944,38.513 278.615 C 38.931 278.413,39.084 278.237,38.852 278.224 C 38.620 278.211,38.519 277.968,38.628 277.684 C 38.738 277.399,38.968 277.254,39.141 277.361 C 39.313 277.467,39.550 277.076,39.667 276.492 C 39.784 275.908,40.357 274.962,40.941 274.391 C 41.949 273.406,41.935 272.536,40.917 272.909 M29.895 291.145 C 29.625 291.850,29.984 292.344,30.692 292.240 C 31.564 292.112,31.629 291.449,30.812 291.012 C 30.242 290.707,30.052 290.735,29.895 291.145 M28.954 293.012 C 28.635 293.365,28.374 293.835,28.374 294.058 C 28.374 294.281,28.218 294.464,28.028 294.464 C 27.837 294.464,27.682 294.775,27.682 295.156 C 27.682 295.536,27.545 295.848,27.378 295.848 C 27.210 295.848,26.870 296.354,26.621 296.972 C 26.371 297.591,25.652 298.873,25.022 299.822 C 24.391 300.771,23.875 301.745,23.875 301.985 C 23.875 302.225,23.720 302.422,23.529 302.422 C 23.159 302.422,23.049 303.556,23.386 303.893 C 23.750 304.257,24.831 303.048,24.675 302.451 C 24.590 302.124,24.935 301.457,25.463 300.929 C 25.980 300.412,26.310 299.897,26.197 299.785 C 26.085 299.672,26.372 299.171,26.835 298.671 C 27.313 298.155,27.599 297.516,27.496 297.192 C 27.297 296.564,28.185 296.051,28.837 296.416 C 29.135 296.583,29.134 296.528,28.833 296.202 C 28.287 295.611,28.639 294.800,29.327 295.065 C 29.747 295.226,29.821 295.128,29.639 294.653 C 29.507 294.310,29.583 293.810,29.806 293.540 C 30.464 292.747,29.650 292.243,28.954 293.012 M369.860 293.555 C 370.077 293.816,370.157 294.282,370.039 294.590 C 369.908 294.933,370.039 295.232,370.379 295.363 C 370.685 295.480,370.934 295.861,370.934 296.210 C 370.934 296.559,371.101 296.948,371.304 297.073 C 371.507 297.199,371.594 297.508,371.497 297.761 C 371.401 298.013,371.546 298.405,371.820 298.633 C 372.094 298.861,372.323 298.911,372.329 298.745 C 372.349 298.181,373.138 299.817,373.184 300.516 C 373.209 300.898,373.559 301.360,373.962 301.543 C 374.792 301.919,375.376 302.993,375.240 303.893 C 375.189 304.226,375.357 304.498,375.613 304.498 C 375.869 304.498,376.177 304.810,376.298 305.190 C 376.418 305.571,376.658 305.882,376.829 305.882 C 377.001 305.882,377.049 306.122,376.937 306.414 C 376.825 306.707,377.009 307.252,377.347 307.625 C 377.685 307.999,377.821 308.307,377.649 308.310 C 377.477 308.313,377.569 308.463,377.855 308.643 C 378.140 308.824,378.374 309.120,378.374 309.302 C 378.374 309.484,378.689 309.996,379.073 310.439 C 380.675 312.286,380.972 312.900,380.526 313.451 C 380.228 313.820,380.223 313.902,380.509 313.731 C 380.769 313.575,381.250 314.173,381.847 315.394 C 382.661 317.057,383.737 317.952,383.737 316.966 C 383.737 316.662,383.490 316.177,381.953 313.459 C 381.697 313.007,381.215 312.384,380.882 312.074 C 380.549 311.764,380.277 311.256,380.277 310.946 C 380.277 310.635,380.121 310.381,379.931 310.381 C 379.740 310.381,379.580 310.108,379.574 309.775 C 379.561 309.089,378.686 307.808,378.186 307.742 C 377.401 307.640,377.363 307.584,377.855 307.261 C 378.222 307.020,378.259 306.844,377.982 306.661 C 377.767 306.518,377.001 305.234,376.281 303.806 C 375.561 302.379,374.374 300.324,373.645 299.240 C 372.915 298.157,372.318 297.106,372.318 296.905 C 372.318 296.704,372.099 296.540,371.832 296.540 C 371.515 296.540,371.408 296.298,371.526 295.848 C 371.627 295.461,371.537 295.156,371.321 295.156 C 371.108 295.156,370.934 294.911,370.934 294.612 C 370.934 294.062,370.147 293.080,369.706 293.080 C 369.573 293.080,369.643 293.293,369.860 293.555 M22.491 304.498 C 22.491 304.879,22.336 305.190,22.145 305.190 C 21.955 305.190,21.799 305.424,21.799 305.709 C 21.799 305.995,21.644 306.228,21.453 306.228 C 21.263 306.228,21.107 306.391,21.107 306.589 C 21.107 306.787,20.821 307.257,20.471 307.633 C 20.120 308.009,19.635 308.742,19.392 309.262 C 19.149 309.782,18.725 310.597,18.450 311.073 C 18.175 311.548,17.864 312.210,17.758 312.543 C 17.653 312.876,17.429 313.149,17.261 313.149 C 17.093 313.149,16.955 313.299,16.955 313.483 C 16.955 313.666,16.497 314.540,15.936 315.423 C 15.376 316.307,14.825 317.450,14.712 317.963 C 14.600 318.477,14.202 319.117,13.828 319.386 C 13.454 319.656,13.149 320.153,13.149 320.492 C 13.149 320.830,12.993 321.107,12.803 321.107 C 12.612 321.107,12.457 321.341,12.457 321.626 C 12.457 321.912,12.339 322.145,12.195 322.145 C 12.051 322.145,11.714 322.651,11.446 323.270 C 11.177 323.888,10.394 325.251,9.705 326.298 C 9.017 327.344,8.071 328.979,7.605 329.931 C 7.138 330.882,6.660 331.739,6.541 331.834 C 6.422 331.929,6.048 332.552,5.709 333.218 C 5.371 333.884,4.999 334.507,4.883 334.602 C 4.459 334.949,3.806 336.338,3.806 336.892 C 3.806 337.206,3.533 337.714,3.198 338.022 C 2.864 338.329,2.371 339.010,2.102 339.533 C 1.833 340.056,1.484 340.484,1.326 340.484 C 1.167 340.484,1.038 340.796,1.038 341.176 C 1.038 341.557,0.902 341.869,0.735 341.869 C 0.227 341.869,-0.058 344.041,0.412 344.331 C 1.021 344.708,1.471 344.313,1.277 343.572 C 1.166 343.147,1.337 342.858,1.784 342.717 C 2.294 342.554,2.367 342.392,2.082 342.049 C 1.803 341.713,1.862 341.440,2.310 340.992 C 2.642 340.660,2.959 340.087,3.016 339.718 C 3.182 338.624,3.760 337.778,4.498 337.543 C 4.879 337.423,5.217 337.062,5.249 336.741 C 5.282 336.421,5.343 335.926,5.386 335.640 C 5.428 335.355,5.479 334.862,5.500 334.546 C 5.538 333.940,6.057 333.893,6.920 334.419 C 7.337 334.673,7.363 334.637,7.050 334.236 C 6.816 333.937,6.772 333.459,6.939 333.045 C 7.125 332.582,7.229 332.525,7.253 332.872 C 7.313 333.770,7.929 332.424,8.023 331.189 C 8.068 330.592,8.210 330.104,8.338 330.104 C 8.465 330.104,8.666 329.753,8.783 329.325 C 8.947 328.728,9.067 328.656,9.299 329.016 C 9.510 329.344,9.674 329.370,9.839 329.103 C 9.969 328.892,9.911 328.720,9.709 328.720 C 9.048 328.720,9.325 328.154,10.220 327.675 C 10.754 327.389,11.022 327.011,10.906 326.708 C 10.801 326.434,10.958 326.032,11.255 325.814 C 11.552 325.597,11.822 325.072,11.854 324.647 C 11.886 324.223,12.044 323.875,12.205 323.875 C 12.366 323.875,12.401 323.720,12.284 323.529 C 12.166 323.339,12.313 323.183,12.609 323.183 C 12.906 323.183,13.168 322.950,13.192 322.664 C 13.216 322.379,13.274 321.990,13.322 321.799 C 13.369 321.609,13.428 321.331,13.452 321.182 C 13.503 320.858,14.781 319.192,15.744 318.192 C 16.125 317.797,16.397 317.357,16.349 317.215 C 16.302 317.072,16.414 316.955,16.598 316.955 C 16.782 316.955,16.844 316.721,16.734 316.436 C 16.608 316.107,16.739 315.917,17.091 315.917 C 17.397 315.917,17.647 315.761,17.647 315.571 C 17.647 315.381,17.530 315.264,17.388 315.311 C 17.245 315.359,17.089 315.281,17.042 315.138 C 16.839 314.532,16.993 314.221,17.588 314.033 C 17.965 313.913,18.209 313.520,18.193 313.058 C 18.174 312.505,18.339 312.313,18.772 312.385 C 19.192 312.456,19.377 312.260,19.377 311.743 C 19.377 311.227,19.535 311.059,19.891 311.196 C 20.249 311.333,20.409 311.160,20.416 310.627 C 20.422 310.206,20.433 309.494,20.440 309.044 C 20.447 308.594,20.543 308.316,20.653 308.427 C 20.955 308.729,22.334 306.835,22.208 306.289 C 22.148 306.027,22.263 305.914,22.464 306.039 C 22.679 306.171,22.752 306.062,22.641 305.772 C 22.537 305.501,22.691 305.188,22.985 305.075 C 23.293 304.957,23.432 304.646,23.314 304.338 C 23.022 303.578,22.491 303.681,22.491 304.498 M383.322 317.556 C 382.509 317.743,383.242 319.377,384.139 319.377 C 384.521 319.377,384.775 319.626,384.775 320.000 C 384.775 320.773,385.549 322.485,385.900 322.489 C 386.042 322.490,386.159 322.785,386.159 323.143 C 386.159 323.504,386.468 323.876,386.853 323.976 C 387.315 324.097,387.476 324.341,387.335 324.708 C 387.218 325.012,387.296 325.260,387.506 325.260 C 387.717 325.260,387.889 325.462,387.889 325.710 C 387.889 326.520,388.744 328.022,389.207 328.025 C 389.456 328.026,389.571 328.173,389.461 328.350 C 389.351 328.527,389.537 328.878,389.873 329.129 C 390.956 329.937,392.124 332.522,391.419 332.548 C 390.989 332.564,391.040 332.654,391.609 332.883 C 392.037 333.055,392.388 333.346,392.388 333.530 C 392.388 333.713,392.715 333.967,393.114 334.094 C 393.613 334.252,393.729 334.437,393.485 334.681 C 393.135 335.031,393.570 336.229,394.222 336.710 C 394.375 336.823,394.453 337.056,394.395 337.229 C 394.261 337.632,395.724 339.109,395.992 338.841 C 396.103 338.730,396.194 338.899,396.194 339.216 C 396.194 339.533,396.335 339.792,396.507 339.792 C 396.680 339.792,396.739 340.105,396.640 340.486 C 396.441 341.246,397.127 342.320,397.617 342.017 C 397.786 341.913,397.924 342.062,397.924 342.348 C 397.924 342.634,398.324 343.305,398.812 343.839 C 399.301 344.373,399.613 344.576,399.505 344.291 C 399.397 344.005,399.212 343.499,399.095 343.166 C 398.977 342.833,398.744 342.561,398.576 342.561 C 398.407 342.561,398.270 342.249,398.270 341.869 C 398.270 341.488,398.132 341.176,397.964 341.176 C 397.796 341.176,397.572 340.904,397.467 340.571 C 397.241 339.859,396.127 337.970,395.779 337.707 C 395.646 337.606,395.254 336.906,394.908 336.150 C 394.052 334.280,392.368 331.461,391.619 330.644 C 391.280 330.275,391.003 329.784,391.003 329.552 C 391.003 328.946,389.544 326.298,389.209 326.298 C 389.054 326.298,388.927 326.064,388.927 325.779 C 388.927 325.493,388.772 325.260,388.581 325.260 C 388.391 325.260,388.235 325.026,388.235 324.740 C 388.235 324.455,388.080 324.221,387.889 324.221 C 387.699 324.221,387.543 323.988,387.543 323.702 C 387.543 323.417,387.388 323.183,387.197 323.183 C 387.007 323.183,386.851 322.902,386.851 322.557 C 386.851 321.118,384.196 317.355,383.322 317.556 M399.183 345.502 C 399.292 345.787,399.521 346.021,399.691 346.021 C 399.861 346.021,400.000 345.787,400.000 345.502 C 400.000 345.216,399.771 344.983,399.492 344.983 C 399.182 344.983,399.062 345.186,399.183 345.502 " stroke="none" fill="#44acf4" fill-rule="evenodd"></path><path id="path2" d="" stroke="none" fill="#50acf4" fill-rule="evenodd"></path><path id="path3" d="" stroke="none" fill="#50acf4" fill-rule="evenodd"></path><path id="path4" d="" stroke="none" fill="#50acf4" fill-rule="evenodd"></path></g></svg>