<?xml version="1.0" encoding="UTF-8" standalone="no"?>
<svg
   xmlns:dc="http://purl.org/dc/elements/1.1/"
   xmlns:cc="http://creativecommons.org/ns#"
   xmlns:rdf="http://www.w3.org/1999/02/22-rdf-syntax-ns#"
   xmlns:svg="http://www.w3.org/2000/svg"
   xmlns="http://www.w3.org/2000/svg"
   width="28"
   height="28"
   viewBox="0 0 7.4083335 7.4083335"
   version="1.1"
   id="svg8">
  <defs
     id="defs2" />
  <metadata
     id="metadata5">
    <rdf:RDF>
      <cc:Work
         rdf:about="">
        <dc:format>image/svg+xml</dc:format>
        <dc:type
           rdf:resource="http://purl.org/dc/dcmitype/StillImage" />
        <dc:title></dc:title>
      </cc:Work>
    </rdf:RDF>
  </metadata>
  <g
     id="layer1">
    <g
       id="g271"
       transform="matrix(0.26458333,0,0,0.26458333,0.00419837,0.00419816)">
      <g
         fill="none"
         fill-rule="evenodd"
         transform="translate(2,2)"
         id="g275">
        <circle
           cx="12"
           cy="12"
           r="13"
           fill="#1c435b"
           stroke="#25c1ff"
           stroke-width="2"
           id="circle265" />
        <g
           fill="#ffffff"
           id="g273">
          <path
             d="m 11.5,15.83 h 3.827 L 11.501,9.087 V 5 L 19,18 h -7.5 z m 0,0 H 7.673 L 11.499,9.087 V 5 L 4,18 h 7.5 z"
             id="path267" />
          <path
             d="m 11.5,10.76 v 4.277 l -2.372,0.005 z m 0,0 v 4.277 l 2.372,0.005 z"
             id="path269" />
          <path
             d="M 12,12.48 4,9 v 4 l 8,-0.162 z m 0,0 L 20,9 v 4 l -8,-0.162 z"
             id="path271" />
        </g>
      </g>
      <rect
         style="fill:#1c435b;fill-opacity:1"
         id="rect3988"
         width="16.753731"
         height="14.029547"
         x="5.6526818"
         y="6.6832609"
         ry="1.51309" />
    </g>
    <g
       style="overflow:visible"
       id="g318"
       transform="matrix(0.01063126,0,0,0.01026445,1.076065,0.94694855)">
      <path
         class="st0"
         d="M 395.1,259.9 H 333 l 12.4,21.5 h -97.8 l 48.9,-84.7 5.9,10.3 h 62.1 l -68,-117.8 -142,245.9 h 284 z"
         id="path305" />
      <polygon
         class="st0"
         points="276.1,53.8 93.1,370.6 459,370.6 490,424.4 0,424.4 95,259.9 25.9,259.9 56.5,207 125.5,207 245,0 "
         id="polygon307" />
    </g>
    <path
       style="fill:#60b0f4;fill-opacity:1;stroke-width:0.0892857"
       d="M 12.926667,27.917556 C 8.0792877,27.515312 3.8589957,24.711495 1.6385712,20.418133 -0.7091737,15.878586 -0.40490231,10.530949 2.4462044,6.2237996 3.2039782,5.0790353 5.0410052,3.2386676 6.1813814,2.48183 8.4191348,0.99669191 10.74677,0.22428027 13.373095,0.0953033 c 8.141017,-0.39979959 14.925166,6.3451098 14.569184,14.4849157 -0.26346,6.02424 -4.308337,11.166657 -10.104554,12.846335 -1.489964,0.431774 -3.365315,0.61927 -4.911058,0.491002 z m 3.526786,-2.096343 C 18.72526,25.328441 20.668761,24.294043 22.344112,22.686 27.203244,18.022088 27.289174,10.296266 22.535067,5.5176 20.8025,3.7760833 18.554071,2.5946931 16.140953,2.1579458 14.976735,1.9472353 12.913284,1.9623899 11.762448,2.1901027 9.3673437,2.6640162 7.3863206,3.699415 5.6487467,5.3854824 3.7268578,7.2504011 2.5526306,9.5139559 2.1111598,12.204881 c -0.1709455,1.041975 -0.1228369,3.199536 0.093594,4.19749 0.9458825,4.361419 4.0060555,7.761479 8.1778102,9.086103 0.466221,0.148035 1.149014,0.317396 1.517317,0.376357 0.368304,0.05896 0.729911,0.121689 0.803572,0.139394 0.35412,0.08512 3.140868,-0.05089 3.75,-0.183012 z"
       id="path320"
       transform="scale(0.26458333)" />
    <path
       style="fill:#60b0f4;fill-opacity:1;stroke-width:0.0892857"
       d="m 4.2213098,19.928703 c 0,-0.0248 0.8047427,-1.39064 1.7883171,-3.035194 0.9835745,-1.644555 1.8111242,-3.049533 1.8389995,-3.122175 0.043109,-0.11234 -0.1506798,-0.135766 -1.2968376,-0.156769 l -1.34752,-0.02469 0.5624035,-0.9375 0.5624034,-0.9375 1.4140982,-0.04464 1.4140981,-0.04464 2.337887,-3.9055698 c 1.285837,-2.1480635 2.360725,-3.9284086 2.388638,-3.9563224 0.05602,-0.05602 1.166552,1.7339753 1.169195,1.8845491 9.11e-4,0.051747 -1.614299,2.796149 -3.589349,6.0986711 -1.9750503,3.302522 -3.6132775,6.062639 -3.6405051,6.133594 -0.042918,0.111842 0.9289736,0.129007 7.3044981,0.129007 h 7.354002 l 0.557336,0.929464 c 0.306535,0.511205 0.557336,0.953169 0.557336,0.982143 0,0.02897 -4.359375,0.05268 -9.6875,0.05268 -5.3281252,0 -9.6875002,-0.02029 -9.6875002,-0.0451 z"
       id="path322"
       transform="scale(0.26458333)" />
    <path
       style="fill:#60b0f4;fill-opacity:1;stroke-width:0.0892857"
       d="m 10.396905,16.50341 c 0.01637,-0.04264 1.271179,-2.154701 2.788467,-4.693463 2.211401,-3.7001697 2.780202,-4.5926064 2.867064,-4.4983608 0.114594,0.1243355 2.543874,4.1643868 2.543874,4.2306278 0,0.0213 -0.51897,0.03873 -1.153267,0.03873 -1.13102,0 -1.156443,-0.0044 -1.317876,-0.225971 L 15.960558,11.129 l -0.998693,1.676864 -0.998693,1.676864 1.972564,0.02407 c 1.08491,0.01323 1.991324,0.0053 2.014253,-0.01763 0.02293,-0.02293 -0.04325,-0.179126 -0.147066,-0.347104 -0.103816,-0.167977 -0.188756,-0.331971 -0.188756,-0.36443 0,-0.03246 0.52597,-0.04781 1.168823,-0.0341 l 1.168822,0.02491 0.834253,1.40625 0.834253,1.40625 h -5.626587 c -3.145735,0 -5.613465,-0.03418 -5.596826,-0.07753 z"
       id="path324"
       transform="scale(0.26458333)" />
  </g>
  <style
     type="text/css"
     id="style24">
	.st0{fill:#4FA2F0;}
</style>
  <style
     type="text/css"
     id="style301">
	.st0{fill:#4FA2F0;}
</style>
</svg>
