<?xml version="1.0" encoding="UTF-8" standalone="no"?>
<svg
   xmlns:sketchjs="https://sketch.io/dtd/"
   xmlns:dc="http://purl.org/dc/elements/1.1/"
   xmlns:cc="http://creativecommons.org/ns#"
   xmlns:rdf="http://www.w3.org/1999/02/22-rdf-syntax-ns#"
   xmlns:svg="http://www.w3.org/2000/svg"
   xmlns="http://www.w3.org/2000/svg"
   xmlns:sodipodi="http://sodipodi.sourceforge.net/DTD/sodipodi-0.dtd"
   xmlns:inkscape="http://www.inkscape.org/namespaces/inkscape"
   width="220mm"
   height="54mm"
   viewBox="0 0 220 54"
   version="1.1"
   id="svg8"
   sodipodi:docname="drawing.svg"
   inkscape:version="1.0.2-2 (e86c870879, 2021-01-15)">
  <defs
     id="defs2" />
  <sodipodi:namedview
     id="base"
     pagecolor="#ffffff"
     bordercolor="#666666"
     borderopacity="1.0"
     inkscape:pageopacity="0.0"
     inkscape:pageshadow="2"
     inkscape:zoom="0.98994949"
     inkscape:cx="383.13858"
     inkscape:cy="27.313546"
     inkscape:document-units="mm"
     inkscape:current-layer="layer1"
     inkscape:document-rotation="0"
     showgrid="false"
     inkscape:window-width="1920"
     inkscape:window-height="1017"
     inkscape:window-x="-8"
     inkscape:window-y="-8"
     inkscape:window-maximized="1"
     units="mm"
     height="109mm" />
  <metadata
     id="metadata5">
    <rdf:RDF>
      <cc:Work
         rdf:about="">
        <dc:format>image/svg+xml</dc:format>
        <dc:type
           rdf:resource="http://purl.org/dc/dcmitype/StillImage" />
        <dc:title></dc:title>
      </cc:Work>
    </rdf:RDF>
  </metadata>
  <g
     inkscape:label="Layer 1"
     inkscape:groupmode="layer"
     id="layer1">
    <g
       style="overflow:visible"
       id="g41"
       transform="matrix(0.11710025,0,0,0.11551325,0.05071567,1.024827)">
      <path
         class="st0"
         d="M 395.1,259.9 H 333 l 12.4,21.5 h -97.8 l 48.9,-84.7 5.9,10.3 h 62.1 l -68,-117.8 -142,245.9 h 284 z"
         id="path28" />
      <polygon
         class="st0"
         points="276.1,53.8 93.1,370.6 459,370.6 490,424.4 0,424.4 95,259.9 25.9,259.9 56.5,207 125.5,207 245,0 "
         id="polygon30" />
    </g>
    <g
       id="g98"
       transform="matrix(0.2537567,0,0,0.25669435,-70.522453,-31.40235)"
       style="fill:#60b0f4;fill-opacity:1">
      <g
         sketchjs:tool="fancyText"
         transform="translate(469,151)"
         id="g81"
         style="fill:#60b0f4;fill-opacity:1">
        <g
           sketchjs:uid="1"
           id="g79"
           style="fill:#60b0f4;fill-opacity:1">
          <g
             sketchjs:uid="2"
             style="paint-order:stroke fill markers;fill:#60b0f4;fill-opacity:1"
             id="g77">
            <path
               d="m 118.9175,156 h -81.6 V 35.3 h 11.9 v 110.16 h 69.7 z m 26.69,0 h -11.56 V 67.43 h 11.56 z m 0,-107.1 h -11.56 v -17 h 11.56 z m 64.94,93.5 3.06,9.35 q -1.02,0.51 -2.975,1.36 -1.955,0.85 -4.505,1.7 -2.55,0.85 -5.78,1.53 -3.23,0.68 -6.8,0.68 v 0 q -3.74,0 -7.14,-1.02 -3.4,-1.02 -5.95,-3.145 -2.55,-2.125 -4.08,-5.355 -1.53,-3.23 -1.53,-7.48 v 0 -63.41 h -12.24 v -9.18 h 12.24 V 37.51 h 11.56 v 29.92 h 20.4 v 9.18 h -20.4 v 60.18 q 0.34,4.93 3.485,7.225 3.145,2.295 7.225,2.295 v 0 q 4.93,0 8.67,-1.615 3.74,-1.615 4.76,-2.295 z m 53.55,15.3 v 0 q -9.69,0 -17.765,-3.655 -8.075,-3.655 -14.025,-10.03 -5.95,-6.375 -9.265,-14.705 -3.315,-8.33 -3.315,-17.85 v 0 q 0,-9.35 3.315,-17.595 3.315,-8.245 9.18,-14.45 5.865,-6.205 14.025,-9.86 8.16,-3.655 17.68,-3.655 v 0 q 9.69,0 17.765,3.655 8.075,3.655 13.855,9.945 5.78,6.29 9.01,14.45 3.23,8.16 3.23,17.34 v 0 q 0,1.36 0,2.72 0,1.36 -0.17,1.87 v 0 h -75.82 q 0.51,7.14 3.315,13.175 2.805,6.035 7.225,10.455 4.42,4.42 10.115,6.885 5.695,2.465 12.155,2.465 v 0 q 4.25,0 8.5,-1.19 4.25,-1.19 7.82,-3.23 3.57,-2.04 6.46,-5.015 2.89,-2.975 4.42,-6.545 v 0 l 10.03,2.72 q -2.04,4.93 -5.78,8.925 -3.74,3.995 -8.67,6.97 -4.93,2.975 -10.88,4.59 -5.95,1.615 -12.41,1.615 z m -32.47,-50.66 h 65.11 q -0.51,-7.14 -3.315,-13.005 -2.805,-5.865 -7.14,-10.115 -4.335,-4.25 -10.03,-6.63 -5.695,-2.38 -12.155,-2.38 v 0 q -6.46,0 -12.24,2.38 -5.78,2.38 -10.115,6.63 -4.335,4.25 -6.97,10.2 -2.635,5.95 -3.145,12.92 z m 87.89,4.42 v 0 q 0,-9.35 3.23,-17.68 3.23,-8.33 9.095,-14.535 5.865,-6.205 14.025,-9.775 8.16,-3.57 18.02,-3.57 v 0 q 12.58,0 21.93,5.695 9.35,5.695 14.11,15.385 v 0 l -11.22,3.57 q -3.74,-6.8 -10.455,-10.625 -6.715,-3.825 -14.875,-3.825 v 0 q -6.8,0 -12.665,2.72 -5.865,2.72 -10.2,7.395 -4.335,4.675 -6.8,11.135 -2.465,6.46 -2.465,14.11 v 0 q 0,7.48 2.55,14.11 2.55,6.63 6.97,11.475 4.42,4.845 10.285,7.65 5.865,2.805 12.495,2.805 v 0 q 4.25,0 8.415,-1.19 4.165,-1.19 7.735,-3.315 3.57,-2.125 6.12,-4.845 2.55,-2.72 3.57,-5.78 v 0 l 11.39,3.4 q -1.87,4.76 -5.44,8.755 -3.57,3.995 -8.415,6.97 -4.845,2.975 -10.71,4.59 -5.865,1.615 -12.155,1.615 v 0 q -9.69,0 -17.85,-3.655 -8.16,-3.655 -14.11,-10.03 -5.95,-6.375 -9.265,-14.705 -3.315,-8.33 -3.315,-17.85 z m 121.72,46.24 v 0 q -6.29,0 -11.645,-2.125 -5.355,-2.125 -9.35,-5.865 -3.995,-3.74 -6.205,-8.755 -2.21,-5.015 -2.21,-10.795 v 0 q 0,-5.78 2.72,-10.71 2.72,-4.93 7.65,-8.5 4.93,-3.57 11.73,-5.525 6.8,-1.955 14.96,-1.955 v 0 q 6.8,0 13.77,1.19 6.97,1.19 12.41,3.4 v 0 -7.99 q 0,-11.73 -6.63,-18.615 -6.63,-6.885 -18.36,-6.885 v 0 q -6.8,0 -13.94,2.72 -7.14,2.72 -14.45,7.82 v 0 l -4.08,-7.65 q 17.17,-11.56 33.32,-11.56 v 0 q 16.66,0 26.18,9.35 9.52,9.35 9.52,25.84 v 0 39.95 q 0,4.76 4.25,4.76 v 0 10.2 q -2.89,0.51 -4.42,0.51 v 0 q -4.42,0 -6.885,-2.21 -2.465,-2.21 -2.635,-6.12 v 0 l -0.34,-6.97 q -6.12,7.99 -15.385,12.24 -9.265,4.25 -19.975,4.25 z m 2.72,-8.84 v 0 q 9.01,0 16.575,-3.4 7.565,-3.4 11.475,-9.01 v 0 q 1.53,-1.53 2.295,-3.315 0.765,-1.785 0.765,-3.315 v 0 -14.45 q -5.78,-2.21 -11.985,-3.4 -6.205,-1.19 -12.665,-1.19 v 0 q -12.24,0 -19.89,5.1 -7.65,5.1 -7.65,13.43 v 0 q 0,4.08 1.615,7.65 1.615,3.57 4.42,6.205 2.805,2.635 6.715,4.165 3.91,1.53 8.33,1.53 z m 97.07,8.84 v 0 q -10.37,0 -20.23,-3.4 -9.86,-3.4 -17,-9.86 v 0 l 5.27,-7.82 q 7.48,6.12 15.215,9.18 7.735,3.06 16.575,3.06 v 0 q 10.71,0 17.085,-4.335 6.375,-4.335 6.375,-12.325 v 0 q 0,-3.74 -1.7,-6.205 -1.7,-2.465 -5.015,-4.335 -3.315,-1.87 -8.33,-3.315 -5.015,-1.445 -11.645,-2.975 v 0 q -7.65,-1.87 -13.26,-3.74 -5.61,-1.87 -9.265,-4.25 -3.655,-2.38 -5.44,-5.865 -1.785,-3.485 -1.785,-8.755 v 0 q 0,-6.63 2.635,-11.73 2.635,-5.1 7.14,-8.415 4.505,-3.315 10.54,-5.015 6.035,-1.7 12.835,-1.7 v 0 q 10.2,0 18.53,3.315 8.33,3.315 13.43,8.755 v 0 l -5.61,6.8 q -4.93,-5.1 -11.985,-7.65 -7.055,-2.55 -14.705,-2.55 v 0 q -4.59,0 -8.5,0.935 -3.91,0.935 -6.885,2.975 -2.975,2.04 -4.675,5.185 -1.7,3.145 -1.7,7.395 v 0 q 0,3.57 1.19,5.78 1.19,2.21 3.91,3.825 2.72,1.615 6.885,2.89 4.165,1.275 10.115,2.635 v 0 q 8.5,2.04 14.96,4.08 6.46,2.04 10.795,4.76 4.335,2.72 6.545,6.63 2.21,3.91 2.21,9.52 v 0 q 0,12.24 -9.35,19.38 -9.35,7.14 -25.16,7.14 z m 127.84,-53.55 V 156 h -11.56 v -49.47 q 0,-15.13 -5.185,-22.61 -5.185,-7.48 -15.215,-7.48 v 0 q -4.93,0 -9.775,1.955 -4.845,1.955 -9.095,5.355 -4.25,3.4 -7.395,7.99 -3.145,4.59 -4.675,10.03 v 0 54.23 h -11.56 V 31.9 h 11.56 v 55.59 q 5.27,-10.03 14.62,-15.81 9.35,-5.78 20.23,-5.78 v 0 q 7.65,0 12.92,2.805 5.27,2.805 8.67,7.82 3.4,5.015 4.93,12.07 1.53,7.055 1.53,15.555 z"
               sketchjs:uid="3"
               style="fill:#60b0f4;fill-opacity:1"
               id="path75" />
          </g>
        </g>
      </g>
      <path
         id="path83"
         style="vector-effect:non-scaling-stroke;fill:#60b0f4;fill-opacity:1;stroke-width:0.663835"
         transform="matrix(1.0426654,0,0,1.030733,278.20287,-38.456845)"
         d="m 138.23828,266.70508 0.008,0.008 c -6.9e-4,-0.002 -8.9e-4,-0.004 -0.002,-0.006 -0.003,-8.9e-4 -0.003,-9e-4 -0.006,-0.002 z m -35.24805,8.5957 c -0.2795,0.42771 -0.55717,0.85551 -0.84375,1.2793 -10e-4,0.048 -0.004,0.0965 -0.006,0.14453 0.32626,-0.40612 0.65678,-0.81454 0.91797,-1.17188 -0.0237,-0.0838 -0.0449,-0.16804 -0.0684,-0.25195 z m 76.2461,62.55274 c -0.40608,0.0955 -0.91557,0.15605 -1.46875,0.20117 0.0451,0.40955 0.10565,0.81774 0.19336,1.22265 0.25856,1.19325 0.76046,0.20105 1.27539,-1.42382 z m -24.4961,0.875 c 0.10329,0.14586 0.11447,0.14085 0.0645,0.0312 -0.0214,-0.01 -0.0431,-0.0217 -0.0645,-0.0312 z" />
    </g>
    <path
       style="fill:#60b0f4;fill-opacity:1;stroke-width:1.01015"
       d="M 2.7022847,186.16003 C 3.5015719,184.63218 12.815592,168.60863 23.400105,150.55216 L 42.644677,117.7222 27.633973,117.21712 12.623269,116.71205 18.879302,106.10544 25.135336,95.498843 40.652877,94.993767 56.17042,94.48869 62.432587,83.882089 C 65.876778,78.048458 77.683929,57.901383 88.670698,39.110813 L 108.64665,4.9461396 115.05552,15.877305 c 3.52488,6.01214 6.41598,11.158449 6.42467,11.436241 0.009,0.277792 -18.08706,31.415744 -40.212803,69.195449 l -40.228613,68.690375 80.893796,0.27417 80.89378,0.27417 6.75187,11.59513 6.75186,11.59511 H 108.78956 1.2490355 Z M 179.59284,182.87704 c 0.34337,-0.55559 0.14292,-1.01015 -0.44546,-1.01015 -0.58837,0 -1.06977,0.45456 -1.06977,1.01015 0,0.55558 0.20046,1.01015 0.44546,1.01015 0.245,0 0.7264,-0.45457 1.06977,-1.01015 z"
       id="path224"
       transform="scale(0.26458333)" />
    <path
       style="fill:#60b0f4;fill-opacity:1;stroke-width:1.01015"
       d="m 70.159649,148.69117 c 0.185195,-0.46796 13.964608,-24.09846 30.620921,-52.512231 23.13978,-39.473838 30.55388,-51.367219 31.42736,-50.414409 0.62873,0.685845 7.312,11.815712 14.85171,24.733037 l 13.70855,23.486047 h -12.97932 c -12.61164,0 -13.03177,-0.07037 -14.83133,-2.484148 l -1.85202,-2.484148 -10.6066,18.192942 c -5.83363,10.00612 -10.75813,18.62437 -10.94332,19.15167 -0.20587,0.58616 8.36925,0.95872 22.0668,0.95872 h 22.40353 l -2.68138,-4.57543 -2.68138,-4.57542 13.29092,0.28228 13.29091,0.28227 7.06602,12.12183 c 3.88631,6.66701 7.96999,13.59918 9.07484,15.40483 l 2.00882,3.28299 H 131.6088 c -33.982226,0 -61.634346,-0.38287 -61.449151,-0.85083 z"
       id="path226"
       transform="scale(0.26458333)" />
  </g>
  <style
     type="text/css"
     id="style24">
	.st0{fill:#4FA2F0;}
</style>
</svg>
